<?xml version="1.0" encoding="UTF-8" standalone="no"?>
<svg
   width="601"
   height="601"
   version="1.1"
   id="svg1237"
   sodipodi:docname="Zaire_Air_Force_Roundel.svg"
   inkscape:version="1.2.2 (732a01da63, 2022-12-09)"
   xmlns:inkscape="http://www.inkscape.org/namespaces/inkscape"
   xmlns:sodipodi="http://sodipodi.sourceforge.net/DTD/sodipodi-0.dtd"
   xmlns="http://www.w3.org/2000/svg"
   xmlns:svg="http://www.w3.org/2000/svg">
  <defs
     id="defs1241" />
  <sodipodi:namedview
     id="namedview1239"
     pagecolor="#ffffff"
     bordercolor="#666666"
     borderopacity="1.0"
     inkscape:showpageshadow="2"
     inkscape:pageopacity="0.0"
     inkscape:pagecheckerboard="0"
     inkscape:deskcolor="#d1d1d1"
     showgrid="false"
     inkscape:zoom="1.3710483"
     inkscape:cx="300.5"
     inkscape:cy="300.5"
     inkscape:window-width="1920"
     inkscape:window-height="1007"
     inkscape:window-x="-9"
     inkscape:window-y="-9"
     inkscape:window-maximized="1"
     inkscape:current-layer="g1235" />
  <g
     transform="matrix(2,0,0,2,0,1)"
     id="g1235">
    <circle
       r="150"
       cy="149.75"
       cx="150.25"
       fill="#6abd51"
       id="circle1197" />
  </g>
  <g
     transform="matrix(1.531371,0,0,1.5328341,-269.16991,-79.452787)"
     id="g44">
		<circle
   class="st1"
   cx="372"
   cy="248"
   id="ellipse6"
   style="clip-rule:evenodd;fill:#fcdd09;fill-rule:evenodd"
   r="130.2" />

		<path
   class="st2"
   d="m 303.1,229.6 c -4.5,0.6 -5.7,-7.4 -5.4,-13.5 0.1,-1.4 3.6,-9.3 3.6,-1.9 0,1.8 1.4,3.1 2,4.8 1.8,4.6 4.7,7.4 3.4,1.9 -1,-4.3 -9,-18.8 12.7,-31.6 9.4,-5.5 19.2,-7.5 27.9,-17.1 1,-1.1 3.5,-5 3.8,0.2 0.1,1.4 -1.2,2.6 -2.5,4.3 -1.2,1.7 -3.1,4.5 1.9,2.5 4,-1.6 6.9,-4.2 10.1,-7.9 4.7,-5.3 10.1,-7.1 20.2,-14.2 3.2,-2.2 7.8,-2 2.6,2.2 -1.6,1.3 -1.8,5.6 -3.5,8 -1.3,1.8 -6.3,5.5 0.4,3.4 6.6,-2.1 10.4,-1.9 22.5,-13.5 2.5,-2.5 4,-6.4 14.2,-4.9 5.8,0.9 10.9,1.1 16.2,-2.5 1.5,-1 5.5,-3.9 1.5,2 -8.9,13.4 -20.9,7.1 -28.5,15.6 -4.1,4.5 -0.9,3.1 2.1,0.6 2.9,-2.4 6.1,-4.2 11.7,-2.1 2,0.7 3.8,0.2 5.8,-1.3 3.7,-2.8 2.8,-0.1 1.8,2 -1.5,3.3 -4.8,4.1 -8.1,5.3 -2.7,1 -1.6,1.7 0.7,2 5.5,0.8 14.5,2.6 16.1,1.5 2.1,-1.4 3.4,-1.3 0.8,2 -3.5,4.5 -9.7,4.9 -16.5,5.2 -3.9,0.2 -9.2,3.3 -14.1,7.5 -3.8,3.2 -3.5,3 -0.9,2.5 1.3,-0.3 5.5,-0.7 1.5,2.6 -1.5,1.2 -4.3,5.7 -6.5,7.8 -1.5,1.5 -3.7,2.6 -6.3,3.5 -2.1,0.7 -7,0.7 -1.1,2.2 6.4,1.6 11.7,0.8 17.8,-1 5.5,-1.6 10.8,0.9 17,4.7 3.6,2.2 7.2,4.9 13.2,3.1 3.3,-1 5.8,-1 1.5,2.7 -5.1,4.3 -12.1,5.8 -20.9,4.2 -3.8,-0.7 -7.5,-1.4 -11.3,-2.1 -3.5,-0.6 -7,0.5 -0.2,1.5 8.2,1.2 13.7,7.9 23.3,10.3 1.1,0.3 2.2,0 3.2,-0.1 1.9,-0.2 5.8,0.3 1.4,2.5 -4,2 -6.4,2.1 -13.5,1 -2.2,-0.3 -4.5,-0.7 -6.7,-1 -2.6,-0.4 -4,-0.5 -0.4,1.2 5.2,2.4 8,6.5 16.5,7.2 4.1,0.4 3.4,1.2 0.6,2.5 -4.3,2 -9.3,2 -14.3,1.5 -3.3,-0.3 -4.7,-1.7 -10.2,-0.8 -4.7,0.7 -5,2.7 -14.2,-1.7 -4.5,-2.2 -5.6,-3.3 -7.8,-4.4 -2.3,-1.1 -5.2,-2.7 -2.1,1.7 2.6,3.7 3.1,7.7 12.1,11.9 3.6,1.7 4.6,1.9 -0.1,2.3 -12.2,1.1 -12.4,-1.7 -17.1,-3.9 -3.5,-1.6 -6.6,-2.4 -10.9,-1.5 -2.4,0.5 -10.4,2.5 -14.5,5.7 -4.2,3.3 -15.9,-0.2 -15.9,-0.2 8.7,-16.8 -22.8,-26.6 -36.6,-26.4 z"
   id="path8"
   style="fill:#da121a" />

		<g
   transform="translate(1.5e-5,0.011959)"
   id="g42">
			<g
   id="g14">
				<path
   class="st3"
   d="m 319.3,292.6 c 0.4,-5.2 3.1,-8.8 5,-14.1 0.1,0 10,-14.6 16.5,-22.7 2.5,-3.7 4.8,-3.5 9,-4.3 7,-1.5 0.9,-2.1 0.1,-2.2 -2.2,-0.5 -3,-1.3 -5.9,-2.2 -3.8,-1.2 0.5,-0.7 1.3,-0.9 l 5.6,-1.1 c 11.3,-2.1 0.6,-2.1 -7.7,-5.5 -13.7,-5.5 -21.2,-11.4 -37.5,-12.5 -3.9,-0.3 -3.8,3.4 -1.7,5.5 1.9,1.9 1.7,3.9 1.9,6.2 0.8,10.2 0.9,20.2 1.5,30.4 -2.2,6.8 -5.1,13.9 -6.6,20.4 z"
   id="path10"
   style="fill:#7d4b23;stroke:#fcdd09;stroke-width:0.2449;stroke-miterlimit:4.7926" />

				<path
   class="st4"
   d="m 303.1,229.1 c -0.7,0 -0.2,1.1 -0.2,1.7 0.6,1.5 2,2.4 2.6,3.9 0.8,0.2 1.6,0.2 2.3,1.2 l 0.1,8.8 c -0.7,-0.5 -1.2,-0.7 -1.8,-0.9 0.1,0.7 -0.3,1.5 -0.6,1.8 -0.2,0.2 0,0.5 0,0.8 l 2.2,1.3 -0.1,8.2 -1.8,0.4 c 0,5 0,10 1.1,14.2 l 0.9,-0.6 c 0.9,-0.1 1,0.6 0.7,2 -0.8,4.4 -2.1,8.8 -3.8,13.4 -0.9,2.6 -2,2.2 -3.2,2.3 l 5.3,-17.1 -5.5,17.5 -0.4,1.2 c 1,0.1 1.3,0.6 3,0.2 1.7,-0.8 3.6,-1.4 5.4,-2.1 -1.2,-0.3 -1.3,-1.3 -1.3,-2.3 0,-3.6 1.7,-7.7 2.6,-11.6 0.5,-1.2 0.3,-2.9 3.4,-2.3 2.1,0.6 4,1 6.8,2.3 1.8,1 3.5,2.2 4.1,4 l 2.4,-3.2 c -1.5,-1.4 -7.9,-3.4 -12.3,-5 -0.5,-0.3 -1.1,-0.4 -0.8,-1.8 l 1.1,-4.3 c 0.2,-2 1.3,-1.9 2.6,-1.4 3.3,0.3 10.8,3.8 12.9,7.6 l 2.5,-3.5 c -5.1,-2.9 -10,-4.9 -14.8,-6.6 -1.4,-0.6 -1.3,-1.7 -1.3,-2.8 l 0.1,-5.1 c 0.5,-2.6 1.2,-1.9 1.8,-1.9 5.6,1.3 13.9,4.3 19.3,9.4 1,-0.9 1,-2.5 3.6,-2.1 l -0.4,-2.4 c -0.5,-0.6 -6.5,-1.2 -8.5,-2.4 -4.2,-1.9 -8.3,-3.7 -12.7,-4.8 -1.4,-0.3 -1.4,-1.4 -1.2,-2.5 l 0.5,-5.2 c 0.3,-1.8 1.7,-2.5 1.5,0.2 -0.8,7.9 0.7,6.5 2.1,0.1 0.3,-1.5 2.3,-1.5 1.6,0.8 -0.3,1.3 -1,3.6 0.9,0.5 0.4,-0.7 0.9,-1.6 2,-1.3 5.8,1.8 5.8,3.1 8.3,4 2.7,1 5.3,-0.3 1.8,-1.9 -8.3,-3.7 -16.6,-7.2 -25.9,-9.7 -2.4,-0.5 -4.6,0.9 -7.2,-2.1 -0.8,-0.7 -1.4,-0.9 -1.7,-0.9 z m 9.6,6.2 c 0.8,0 1.6,1.2 1.4,2.2 l -0.4,5.2 c -0.1,3.3 -2.5,2.6 -2.3,0.3 l 0.2,-5.7 c 0.1,-1.5 0.6,-2 1.1,-2 z m 4.6,0.8 c 0.7,0 1.4,1 1.1,2.4 l -0.6,5.7 c -0.4,2 -2.7,1.9 -2.5,-0.2 l 0.8,-6.6 c 0.4,-0.9 0.8,-1.3 1.2,-1.3 z m -5.4,11.8 c 0.6,0 1.1,0.6 1,1.8 l -0.5,5 c -0.1,2.5 -2.1,2.5 -1.9,0.1 l 0.2,-5.2 c 0,-1.2 0.6,-1.7 1.2,-1.7 z m 3.5,1.9 c 0.4,0 0.9,0.5 0.9,1.4 l -0.5,4.1 c 0,2 -1.8,1.9 -1.6,0.1 l 0.3,-4.1 c 0.1,-1 0.5,-1.4 0.9,-1.5 z m -5.2,10.5 c 0.4,0 0.7,0.5 0.6,1.6 l -0.5,4.5 c 0,1.1 -1.4,1.2 -1.2,0.1 l 0.4,-4.5 c 0,-1.2 0.4,-1.7 0.7,-1.7 z m 2.8,0.3 c 0.5,0 0.9,0.6 0.7,1.4 l -0.4,3.2 c 0,0.9 -1.4,1.6 -1.4,0 l 0.4,-3.3 c 0,-0.9 0.4,-1.3 0.7,-1.3 z"
   id="path12"
   style="fill:#fcdd09" />

			</g>

			<g
   id="g40">
				<path
   class="st5"
   d="m 288.7,317.7 c 1.2,3.2 1.6,6.5 1.8,9.9 l -5.1,17.5 c 3.3,2.9 6.9,6 10.8,8.6 l 5.6,-15 c 0.7,-1.7 1.9,-0.7 3,0.2 2.1,1.8 3,3.5 7.1,3.1 3.5,-0.3 3.2,-0.3 6,1.6 16.5,11.9 27.2,21.6 43.4,33.9 15.4,1.2 34.2,0.9 58,-8.5 -22.3,-21.3 -44,-21.9 -56.6,-29.1 -10.7,-6.1 -21.4,-9.9 -27.1,-19.1 -2.5,-4.1 -0.4,-6.9 -2.9,-10.4 -3.6,-5 -3.1,-8.5 -4.9,-12.3 -1.3,-2.7 -3.1,-5.1 -5.6,-6.8 -1.9,-1.3 -5.2,-4 -12.4,-4.1 l -5.7,1.4 -6.1,0.7 -1.3,4.2 -3.2,1.9 -4,8.1 z"
   id="path16"
   style="fill:#7d4b23;stroke:#fcdd09;stroke-width:0.3674;stroke-linejoin:round;stroke-miterlimit:4.7926" />

				<g
   id="g32">
					<path
   class="st4"
   d="m 287.4,346.6 5.6,-19.1 c 1.2,-4.2 4.1,-3.2 2.7,1.2 l -6.2,19.7 z"
   id="path18"
   style="fill:#fcdd09" />

					<path
   class="st4"
   d="m 299,329.1 c 2.1,-5 3.8,-3.8 2.1,1.1 l -7.2,21.7 c -0.6,-0.5 -1.1,-0.9 -1.9,-1.5 z"
   id="path20"
   style="fill:#fcdd09" />

					<path
   class="st4"
   d="m 384.5,377.4 c -11.7,-7.7 -19.4,-13.7 -25.5,-19.7 -19.9,-19.4 -2.3,-4 6.6,2.9 7.2,5.5 14,10.2 24.4,16.2 z"
   id="path22"
   style="fill:#fcdd09" />

					<path
   class="st4"
   d="m 299.1,288.5 c -1.8,0 -3.2,1.7 -2.6,3.9 -0.1,1.1 -0.5,1.2 -0.8,1.6 -1.6,0.6 -0.7,-1.4 -4.4,2.4 -0.6,1 -0.8,1.1 -0.8,1.8 0.1,1.4 -0.4,3 -1.1,3.9 -0.7,0.7 -0.9,1.3 -1,2.2 -0.1,0.8 0,1.6 0,2.4 0.1,0.9 0,1.7 -0.1,2.6 -0.2,0.9 -0.3,1.7 -0.2,2.7 0.2,1.1 0.3,1.9 0.1,3 -0.6,2.5 -0.3,3.5 0,4.5 0.5,0.8 0.5,1.6 0.5,2.5 0.1,0.9 0.2,2 0.5,2.9 0.6,0.6 1.2,2.6 0.9,3.7 1.6,-4.9 4.5,-8.1 10.6,-6 2.3,1.4 3.4,-2.7 5.1,-0.6 2.1,0.3 6.2,-1.7 6.2,0.8 0.3,2.5 0.4,5.5 4.4,6.8 2.2,0.8 6.1,-0.7 5.6,3.9 0.2,2.6 -3,4.7 0.7,7.6 2.7,2.1 9.6,1.6 4.9,-1 -2.1,-1.5 -2.9,-1.7 -3.5,-3 -1.3,-2.9 0.6,-4.7 1.3,-3.9 l 8.9,9.2 c 6.9,7.8 14.9,15.2 22.6,22.6 l 4.7,4.6 c 2,2.7 4.3,5.1 5.9,8.4 1,0 1.7,0.1 2.4,0.1 -2.5,-3.1 -5.2,-5.6 -7.8,-8.2 -9.5,-10.2 -19.6,-19.9 -28.5,-30.6 -1.3,-1.5 -1,-1.6 -1.2,-2 -0.3,-3.8 -2,-6.1 -3,-9.1 -1.1,-3.4 1.8,-6.1 2.2,-9.4 0.4,-4.3 -2.3,-3.3 -2.1,0.2 0.1,2.6 -2.1,4.1 -2.6,5.9 -0.4,1.4 -0.7,2.7 0.4,4.5 1.6,2 2.1,3.4 2.8,4.8 1,2.4 0.2,1.5 -0.5,0.8 -2.2,-1.9 -3.8,-3.9 -5.5,-6.2 -2,-2.7 -2.8,-1.2 -5,-1.4 -2.6,-0.1 -3.3,-1.4 -4.5,-3.8 -1.6,-8.4 0.1,-9.5 1.5,-21.7 0.3,-1.6 6.2,-2.7 1.9,-3 -4.2,-0.1 -4.1,0 -5.3,-2 -0.5,-0.8 -0.6,-1.2 -0.6,-2 -0.1,-1 -1.1,-1 -2.5,-0.2 -4.1,1.9 -6.6,2.2 -10.4,0.5 -0.1,-0.2 -0.1,-0.5 0.3,-1 2.2,0.3 2.6,-0.5 3.1,-1.2 0.6,-0.9 0.3,-2.3 -0.2,-3 -0.4,-0.6 -1.7,-1 -3.1,-1.2 -0.1,-0.3 -0.1,-0.3 -0.2,-0.3 z m -0.2,1.6 2.4,0.2 c 0,0.8 -0.5,1.2 -0.4,2.5 -1.3,0 -2,0 -2.7,-0.1 0.1,-1.4 0.2,-1.8 0.7,-2.6 z m -3.2,5.7 c 0.5,0 0.9,0.1 1.4,0.3 l 4.2,1.9 c 1.8,0.4 3.6,0.4 5.6,-0.2 1.6,-0.3 3,-0.2 4,0.8 0.6,0.6 1.2,0.9 1.2,1.8 -0.1,1.8 -1.6,3.6 -3.5,1.4 -0.8,-0.9 -2.2,-0.6 -3.3,-0.9 -1.7,0.2 -3.4,0.2 -5,0 -2.3,0 -4.4,-0.2 -5.7,-0.9 -3.2,-1.6 -1.3,-4.2 1.1,-4.2 z m 4.4,6.3 c 2.8,0 5.3,0.4 6.7,2 1.5,1.4 4.3,1.7 4.3,3.8 0,1.5 -1.4,4.9 -3.8,2.5 -1.9,-1.9 -2.9,-2.6 -5.2,-3 l -8.8,-0.2 c -1.7,0.6 -4.5,-4.4 0.5,-4.7 1.8,-0.2 4.1,-0.4 6.3,-0.4 z m -2.8,6.9 c 1.4,0 2.7,0.1 4.1,0.2 2.6,0.4 3.7,1.7 5.3,2.7 l 1.5,1.5 c 0.3,1.4 -1.2,4.3 -3,3.6 0,0 -2.9,-1.9 -4.5,-2.3 -2.5,-0.8 -7.9,-0.8 -7.9,-0.8 -3.1,0 -3.5,-3.6 -0.7,-4.3 1.7,-0.4 3.5,-0.6 5.2,-0.6 z m 15.7,1.5 c 1.1,0 -1.2,3.3 -1.6,1.9 0.3,-0.7 0.5,-1.2 1,-1.7 0.2,-0.2 0.4,-0.2 0.6,-0.2 z m -14.3,5.3 c 2.8,0.5 3.3,4.2 0.1,4.7 l -4.6,-0.1 -2,0.6 c -2.3,0.6 -3.2,-1.6 -1.3,-3.8 1.2,-1.6 5,-1 7.8,-1.4 z m 11.3,1.1 c 0.6,0 1,0.5 0,2.1 -0.5,0.7 -1.4,0.5 -1.7,-0.5 -0.2,-0.8 0.5,-1.2 1.3,-1.5 0.1,0 0.3,-0.1 0.4,-0.1 z"
   id="path24"
   style="fill:#fcdd09" />

					<path
   class="st4"
   d="m 302.2,334.5 c 0.7,-4.4 2,-6.4 3.7,-10.3 0.4,-1.1 0.1,-2.1 -0.1,-3.1 l 5.5,0.3 c 0,0.3 -0.7,0 -1.1,0.5 -1.8,2.7 -4.8,8.4 -6.3,13 1,1.3 1.1,2.6 1.1,4 -0.8,-0.7 -1.3,-0.9 -1.7,-1 -1,-0.5 -1.6,1 -2.1,2.8 0.2,-1.2 0.5,-1.5 0.5,-2.2 -0.5,-0.5 -0.5,-2.1 0,-2.4 0.5,-0.5 0.4,-1 0.5,-1.6 z"
   id="path26"
   style="fill:#fcdd09" />

					<path
   class="st4"
   d="m 315.2,341.9 c 1.2,0.3 2,1 2.8,1.7 0.1,0.1 -0.1,-1 0.6,-1.9 0.4,-0.4 -1.3,-1.2 -1.8,-0.9 -0.5,0.5 -1.3,1 -1.6,1.1 z"
   id="path28"
   style="fill:#fcdd09" />

					<path
   class="st4"
   d="m 384.2,359.3 c 4.9,5.5 5.6,4.2 3.5,1.4 -11.2,-14.9 -16.6,-14.4 -12.3,-10.5 3.8,3.6 3.5,3.1 8.8,9.1 z"
   id="path30"
   style="fill:#fcdd09" />

				</g>

				<g
   id="g38">
					<path
   class="st6"
   d="m 419.3,368.8 c -22.3,-21.3 -43.9,-21.7 -56.6,-28.9 -10.7,-6.1 -21.4,-9.8 -27,-19 -2.5,-4.1 -0.4,-6.9 -2.9,-10.4 -3.6,-5 -3.1,-8.5 -4.9,-12.3 -1.3,-2.7 -3.1,-5.1 -5.6,-6.8 -1.9,-1.3 -5.2,-4 -12.4,-4.1 l -5.7,1.4"
   id="path34"
   style="fill:none;stroke:#fcdd09;stroke-width:0.9801;stroke-linecap:round;stroke-linejoin:round;stroke-miterlimit:4.7926" />

					<path
   class="st7"
   d="m 291,326 -5.4,18.8"
   id="path36"
   style="fill:none;stroke:#fcdd09;stroke-width:0.9798;stroke-linecap:round;stroke-linejoin:round;stroke-miterlimit:4.7926" />

				</g>

			</g>

		</g>

	</g>
</svg>
