<svg xmlns="http://www.w3.org/2000/svg" xml:space="preserve" viewBox="-4.33 -4.34 408.59 408.59"><metadata xmlns:fl="https://football-logos.cc/cameroon/cameroon-national-team">dl1_10b1d5c0c4f861ec064666a0777a5d18eb82943671f818d24c0c6ca59b5f82ee</metadata><!-- Source: https://football-logos.cc --><path d="M2994.42 1499.74C2994.42 674.211 2325.22 5 1499.71 5 674.242 5 5 674.211 5 1499.74s669.242 1494.71 1494.71 1494.71c825.51 0 1494.71-669.18 1494.71-1494.71" style="fill:#f5c20b;fill-opacity:1;fill-rule:nonzero;stroke:none" transform="matrix(.13333 0 0 -.13333 0 399.92)" data-source="https://football-logos.cc"></path><path d="M1500.77 2527.54s89.15 340.26 406.58 346.36c0 0-366.24 146.5-811.76 0 0 0 299.22-7.62 405.18-346.36" style="fill:#1d431f;fill-opacity:1;fill-rule:nonzero;stroke:none" transform="matrix(.13333 0 0 -.13333 0 399.92)"></path><path d="M1550.28 2527.54s106.82 328.03 474.54 314.35c0 0 318.89-111.41 544.74-381.45 0 0-268.55 201.39-611.84 16.77 0 0-175.51 262.4-407.44 50.33" style="fill:#1d431f;fill-opacity:1;fill-rule:nonzero;stroke:none" transform="matrix(.13333 0 0 -.13333 0 399.92)"></path><path d="M2879.28 1918.74c-235 816.33-883.44 524.85-883.44 524.85s133.79-118.48 355.5-171.37c221.76-52.91 413.04-167.85 527.94-353.48" style="fill:#1d431f;fill-opacity:1;fill-rule:nonzero;stroke:none" transform="matrix(.13333 0 0 -.13333 0 399.92)"></path><path d="M2070.61 2335.31s238.02-120.54 425.7-172.45c187.66-51.85 550.82-340.25 422.64-942.46 0 0-11.19 316.9-381.47 597.67-370.26 280.73-466.87 517.24-466.87 517.24" style="fill:#1d431f;fill-opacity:1;fill-rule:nonzero;stroke:none" transform="matrix(.13333 0 0 -.13333 0 399.92)"></path><path d="M2310.63 1936.53s30.54-91.53 18.33-258.35c0 0 85.43-148.51 207.5-307.21 122.1-158.71 185.14-467.919 69.17-789.38 0 0 310.29 325.539 258.36 606.25-51.86 280.8-186.14 436.42-317.33 531.03-131.21 94.56-236.03 217.66-236.03 217.66" style="fill:#1d431f;fill-opacity:1;fill-rule:nonzero;stroke:none" transform="matrix(.13333 0 0 -.13333 0 399.92)" data-source="https://football-logos.cc"></path><path d="M2187.87 1080.03s50.87-307.132-93.57-699.858c0 0 238.06 309.25 93.57 699.858M894.723 380.172c-144.496 392.726-93.629 699.858-93.629 699.858-144.485-390.608 93.629-699.858 93.629-699.858m167.267-34.543c70.22-80.887 238.07-216.68 438.78-216.68 200.77 0 389.74 166.293 411.12 199.871 21.36 33.539 15.3 65.629 15.3 65.629-67.18 408.86 137.27 707.991 137.27 707.991 86.22 102.22 160.75 259.34 160.75 259.34 8.12-69.16 83.42-180.02 120.02-277.67 36.65-97.649 27.46-210.551 27.46-210.551 103.79 204.471-115.95 573.691-115.95 573.691l53.89 149.52c11.19-54.89 126.91-170.9 126.91-170.9 357.84-476.03 51.15-970.421 51.15-970.421C1414.44-444.758 492.859 470.73 492.859 470.73c-228.879 472.981-21.343 866.65 54.914 936.88 76.325 70.17 133.75 189.16 133.75 189.16l53.911-149.52s-219.696-369.22-115.922-573.691c0 0-9.184 112.902 27.437 210.551 36.641 97.65 111.938 208.51 120.043 277.67 0 0 74.524-157.12 160.707-259.34 0 0 204.471-299.131 137.311-707.991zM1445.32 2527.54s-106.78 328.03-474.539 314.35c0 0-318.89-111.41-544.734-381.45 0 0 268.566 201.39 611.873 16.77 0 0 175.5 262.4 407.4 50.33" style="fill:#1d431f;fill-opacity:1;fill-rule:nonzero;stroke:none" transform="matrix(.13333 0 0 -.13333 0 399.92)"></path><path d="M116.34 1918.74c234.988 816.33 883.48 524.85 883.48 524.85s-133.797-118.48-355.55-171.37c-221.707-52.91-412.969-167.85-527.93-353.48" style="fill:#1d431f;fill-opacity:1;fill-rule:nonzero;stroke:none" transform="matrix(.13333 0 0 -.13333 0 399.92)"></path><path d="M925 2335.31s-238.008-120.54-425.715-172.45c-187.64-51.85-550.8-340.25-422.629-942.46 0 0 11.188 316.9 381.489 597.67C828.445 2098.8 925 2335.31 925 2335.31" style="fill:#1d431f;fill-opacity:1;fill-rule:nonzero;stroke:none" transform="matrix(.13333 0 0 -.13333 0 399.92)"></path><path d="M685.012 1936.53s-30.539-91.53-18.313-258.35c0 0-85.469-148.51-207.535-307.21-122.062-158.71-185.141-467.919-69.199-789.38 0 0-310.266 325.539-258.379 606.25 51.891 280.8 186.117 436.42 317.375 531.03 131.211 94.56 236.051 217.66 236.051 217.66M1132.21 2168.98c-13.48 0-24.39-10.91-24.39-24.43 0-13.49 10.91-24.4 24.39-24.4 13.49 0 24.37 10.91 24.37 24.4 0 13.52-10.88 24.43-24.37 24.43m193.79 190.7s-4.62-82.38-21.35-105.25c-16.81-22.91-7.67-70.16 0-94.59 7.62-24.44-16.81-42.77-26-64.08-9.12-21.39 9.19-62.58 12.23-71.72 3.06-9.18 2.58-33.62-14.71-32.06-17.31 1.53-129.53 25.96-276.35-83.94 0 0 49.98 102.27 153.78 131.25 0 0 53.37 15.25 70.14 38.16l-39.64 7.62s-35.12-39.68-131.25 24.38c-96.112 64.11-183.104-10.65-183.104-10.65s65.641 120.51 199.914 134.24c0 0 25.93-.74 45-18.27 19.07-17.55 88.59-39.68 136.58-36.66l-1.52 32.84-16.07 9.14 3.82 25.93s86.25 59.53 88.53 113.66M1838.7 2144.55c0-13.49 10.9-24.4 24.39-24.4 13.47 0 24.37 10.91 24.37 24.4 0 13.52-10.9 24.43-24.37 24.43-13.49 0-24.39-10.91-24.39-24.43m-80.89 101.47 3.83-25.93-16.03-9.14-1.57-32.84c47.97-3.02 117.53 19.11 136.62 36.66 19.07 17.53 44.97 18.27 44.97 18.27 134.29-13.73 199.86-134.24 199.86-134.24s-86.95 74.76-183.06 10.65c-96.11-64.06-131.21-24.38-131.21-24.38l-39.7-7.62c16.83-22.91 70.2-38.16 70.2-38.16 103.73-28.98 153.8-131.25 153.8-131.25-146.88 109.9-259.1 85.47-276.39 83.94-17.27-1.56-17.79 22.88-14.73 32.06 3.05 9.14 21.33 50.33 12.19 71.72-9.14 21.31-33.58 39.64-25.96 64.08 7.63 24.43 16.82 71.68 0 94.59-16.76 22.87-21.3 105.25-21.3 105.25 2.26-54.13 88.48-113.66 88.48-113.66M1584.8 383.719s18.95-8 19.35 17.383c.36 25.378-8.69 43.539-9.19 56.699-.48 13.179-19.51-58.141-19.51-58.141s.82-10.93 9.35-15.941m-66.4.851s18.19-9.57 20.71 15.649c2.53 25.25-4.96 44.14-4.36 57.312.62 13.129-24.33-56.359-24.33-56.359s-.12-10.883 7.98-16.602m-65.77-1.558s19.83-5.36 16.78 19.847c-3.01 25.133-14.5 41.942-16.78 54.911-2.26 12.96-11.45-60.282-11.45-60.282s2.3-10.679 11.45-14.476m-61.04 0s19.87-5.36 16.79 19.847c-3.06 25.133-14.5 41.942-16.79 54.911-2.3 12.96-11.44-60.282-11.44-60.282s2.3-10.679 11.44-14.476m-64.07 33.527-63.34 116.793s-6.84-79.402 0-108.383c6.85-28.969 18.29-50.347 40.47-50.347 22.09 0 22.87 27.457 22.87 27.457 1.8 9.851 0 14.48 0 14.48m327.29-14.48s.75-27.457 22.88-27.457 33.56 21.378 40.4 50.347c6.89 28.981 0 108.383 0 108.383l-63.28-116.793s-1.79-4.629 0-14.48m-494.66 912.951c13.24-257.39 93.59-236.62 93.59-236.62v303.76c-90.55 75.26-93.59-67.14-93.59-67.14m177.03 58.98s-9.14 10.16-22.37 11.19c-13.25 1.03-22.39-24.38-22.39-69.14 0-44.77 22.39-90.55 22.39-90.55s12.21 49.88 12.21 60.01c0 10.17 7.14 82.42 10.16 88.49m56.49-14.21s-31.51 8.14-26.43-54.45l12.91-35.08 13.52 35.08zm76.29 0s-31.52 8.14-26.44-54.45l12.95-35.08 13.49 35.08zm49.26-54.45 13.49-35.08 12.99 35.08c5.04 62.59-26.48 54.45-26.48 54.45zm75.3 0 13.49-35.08 12.95 35.08c5.08 62.59-26.44 54.45-26.44 54.45zm68.16-19.83c0-10.13 12.23-60.01 12.23-60.01s22.37 45.78 22.37 90.55c0 44.76-9.15 70.17-22.37 69.14-13.25-1.03-22.43-11.19-22.43-11.19 3.08-6.07 10.2-78.32 10.2-88.49m74.28 96.65v-303.76s80.34-20.77 93.57 236.62c0 0-3.02 142.4-93.57 67.14m-427.23-379.44s-36.64-213.562-36.64-264.468c0-50.832 18.31-142.402 130.21-172.902 111.9-30.57 195.32-8.16 266.03 56.961 70.65 65.109 41.16 233.918 0 372.238-41.25 138.401-172.16 34.661-172.16 34.661-131.95 99.66-187.44-26.49-187.44-26.49m-68.18 798.51c24.4-3.04 153.61-22.33 175-48.79 21.35-26.47 106.78-34.58 130.17-16.27 23.41 18.29 104.77 43.75 182.08 57.98 77.3 14.2 95.63 75.24 95.63 75.24 28.49-142.4-189.21-146.48-258.4-223.74-69.1-77.37-18.27-183.1 61.03-185.16 79.37-2.01 227.87 8.16 305.21-89.51 77.3-97.64 2.06-189.21-34.84-292.58-36.9-103.421-89.27-403.179-42.5-555.788 46.84-152.602-37.72-277.672-160.69-235-122.97 42.66-172.98 80.359-384.51 13.199-211.58-67.121-195.31 142.48-189.2 162.82 6.1 20.32 100.17 400.77-41.73 646.419-141.913 245.67 57.95 328.06 91.15 341.79s204.84 13.73 204.84 13.73 85.44 10.7 83.94 97.63c-1.52 86.99-111.38 141.92-212.09 178.56-100.7 36.6-73.25 135.79-73.25 135.79-3.08-29.52 43.75-73.24 68.16-76.32" style="fill:#1d431f;fill-opacity:1;fill-rule:nonzero;stroke:none" transform="matrix(.13333 0 0 -.13333 0 399.92)" data-source="https://football-logos.cc"></path><!-- source: https://football-logos.cc --></svg>