<?xml version="1.0" encoding="UTF-8" standalone="no"?>
<!-- Created with Inkscape (http://www.inkscape.org/) -->

<svg viewBox="0 0 115.30884 115.30884"
   xmlns:dc="http://purl.org/dc/elements/1.1/"
   xmlns:cc="http://creativecommons.org/ns#"
   xmlns:rdf="http://www.w3.org/1999/02/22-rdf-syntax-ns#"
   xmlns:svg="http://www.w3.org/2000/svg"
   xmlns="http://www.w3.org/2000/svg"
   xmlns:sodipodi="http://sodipodi.sourceforge.net/DTD/sodipodi-0.dtd"
   xmlns:inkscape="http://www.inkscape.org/namespaces/inkscape"
   width="115.30884"
   height="115.30884"
   id="svg2"
   version="1.1"
   inkscape:version="0.48.4 r9939"
   sodipodi:docname="Ceskoslovensky Fotbalovy Svaz.svg"
   inkscape:export-filename="C:\Users\StryfeUAC\Desktop\Pablo\Vestores\cHECOSLOVAQUIA.png"
   inkscape:export-xdpi="1561.0251"
   inkscape:export-ydpi="1561.0251">
  <defs
     id="defs4" />
  <sodipodi:namedview
     id="base"
     pagecolor="#ffffff"
     bordercolor="#666666"
     borderopacity="1.0"
     inkscape:pageopacity="0.0"
     inkscape:pageshadow="2"
     inkscape:zoom="2.8"
     inkscape:cx="100.14378"
     inkscape:cy="35.681953"
     inkscape:document-units="px"
     inkscape:current-layer="layer2"
     showgrid="false"
     fit-margin-top="0"
     fit-margin-left="0"
     fit-margin-right="0"
     fit-margin-bottom="0"
     showguides="true"
     inkscape:guide-bbox="true"
     inkscape:window-width="1366"
     inkscape:window-height="705"
     inkscape:window-x="-4"
     inkscape:window-y="-4"
     inkscape:window-maximized="1" />
  <metadata
     id="metadata7">
    <rdf:RDF>
      <cc:Work
         rdf:about="">
        <dc:format>image/svg+xml</dc:format>
        <dc:type
           rdf:resource="http://purl.org/dc/dcmitype/StillImage" />
        <dc:title />
      </cc:Work>
    </rdf:RDF>
  </metadata>
  <g
     inkscape:groupmode="layer"
     id="layer2"
     inkscape:label="Layer"
     style="display:inline"
     transform="translate(0.154416,0.15442181)">
    <path
       sodipodi:type="arc"
       style="fill:#000000;fill-opacity:1;stroke:none;display:inline"
       id="path2997-8-5"
       sodipodi:cx="52.857143"
       sodipodi:cy="56.42857"
       sodipodi:rx="70.714287"
       sodipodi:ry="68.214287"
       d="m 123.57143,56.42857 c 0,37.67371 -31.659864,68.21429 -70.714287,68.21429 -39.054422,0 -70.714286,-30.54058 -70.714286,-68.21429 0,-37.673711 31.659864,-68.214287 70.714286,-68.214287 39.054423,0 70.714287,30.540576 70.714287,68.214287 z"
       transform="matrix(0.70596561,0.40758944,-0.42252725,0.7318387,44.027284,-5.3406283)" />
    <path
       sodipodi:type="arc"
       style="fill:none;stroke:none;display:inline"
       id="path2997-8-4"
       sodipodi:cx="52.857143"
       sodipodi:cy="56.42857"
       sodipodi:rx="70.714287"
       sodipodi:ry="68.214287"
       d="m 123.57143,56.42857 c 0,37.67371 -31.659864,68.21429 -70.714287,68.21429 -39.054422,0 -70.714286,-30.54058 -70.714286,-68.21429 0,-37.673711 31.659864,-68.214287 70.714286,-68.214287 39.054423,0 70.714287,30.540576 70.714287,68.214287 z"
       transform="matrix(-0.36646312,0.50303225,-0.52146799,-0.37989368,106.29589,52.348006)" />
    <path
       sodipodi:type="arc"
       style="fill:#ffffff;fill-opacity:1;stroke:none"
       id="path2997-8"
       sodipodi:cx="52.857143"
       sodipodi:cy="56.42857"
       sodipodi:rx="70.714287"
       sodipodi:ry="68.214287"
       d="m 123.57143,56.42857 c 0,37.67371 -31.659864,68.21429 -70.714287,68.21429 -39.054422,0 -70.714286,-30.54058 -70.714286,-68.21429 0,-37.673711 31.659864,-68.214287 70.714286,-68.214287 39.054423,0 70.714287,30.540576 70.714287,68.214287 z"
       transform="matrix(0.52661374,0.30404059,-0.31518342,0.54591372,47.450053,10.624148)" />
    <path
       style="fill:#da2727;fill-opacity:1;stroke:none"
       d="M 57.5,23.59375 57.5,100.5 C 72.349248,100.48853 86.791454,92.784607 94.75,79 105.61695,60.177893 100.62503,36.567402 83.9375,23.59375 l -26.4375,0 z"
       id="rect3923"
       inkscape:connector-curvature="0" />
    <path
       style="fill:#328cda;fill-opacity:1;stroke:none"
       d="M 56.5625,14.5 C 42.042648,14.825313 28.042397,22.503172 20.25,36 c -0.01173,0.02031 -0.01956,0.04218 -0.03125,0.0625 L 57.5,58.9375 94.75,36.0625 C 91.101071,29.708793 85.802177,24.177239 79,20.25 71.930233,16.168268 64.168137,14.329598 56.5625,14.5 z"
       id="path3902"
       inkscape:connector-curvature="0" />
    <path
       sodipodi:type="arc"
       style="fill:#f7b933;fill-opacity:1;stroke:#000000;stroke-width:2.9481926;stroke-miterlimit:4;stroke-opacity:1;stroke-dasharray:none"
       id="path2997"
       sodipodi:cx="52.857143"
       sodipodi:cy="56.42857"
       sodipodi:rx="70.714287"
       sodipodi:ry="68.214287"
       d="m 123.57143,56.42857 c 0,37.67371 -31.659864,68.21429 -70.714287,68.21429 -39.054422,0 -70.714286,-30.54058 -70.714286,-68.21429 0,-37.673711 31.659864,-68.214287 70.714286,-68.214287 39.054423,0 70.714287,30.540576 70.714287,68.214287 z"
       transform="matrix(0.28850867,0.16657056,-0.17267523,0.29908228,51.994073,31.818766)" />
    <path
       style="font-size:medium;font-style:normal;font-variant:normal;font-weight:normal;font-stretch:normal;text-indent:0;text-align:start;text-decoration:none;line-height:normal;letter-spacing:normal;word-spacing:normal;text-transform:none;direction:ltr;block-progression:tb;writing-mode:lr-tb;text-anchor:start;baseline-shift:baseline;color:#000000;fill:#000000;fill-opacity:1;stroke:none;stroke-width:1px;marker:none;visibility:visible;display:inline;overflow:visible;enable-background:accumulate;font-family:Sans;-inkscape-font-specification:Sans"
       d="m 52.540346,34.465368 c -0.325066,0.07005 -0.644445,0.152375 -0.966206,0.236017 0.01837,0.789663 -0.0092,1.766765 -0.152965,3.014943 -0.261267,2.267588 -0.911036,5.224515 -2.395193,8.648596 -0.873735,-1.460612 -3.005839,-4.59291 -6.418106,-7.133513 -0.263124,0.214254 -0.500358,0.456185 -0.755008,0.682712 4.145108,3.011001 6.350434,6.949584 6.660554,7.526081 -0.434147,0.918957 -0.894817,1.86237 -1.458433,2.838581 -0.02163,0.03746 -0.04084,0.07101 -0.0625,0.108253 -0.02143,0.03739 -0.04087,0.0708 -0.0625,0.108254 -0.563616,0.976211 -1.150297,1.846871 -1.729067,2.68233 -0.676854,0.02036 -5.490981,0.09594 -10.33938,-2.216667 -0.09354,0.323384 -0.161716,0.654254 -0.240806,0.979587 4.089747,1.895707 8.127482,2.191062 9.905246,2.218611 -2.223263,2.997358 -4.459152,5.038538 -6.292307,6.398595 -1.72637,1.280832 -3.030805,1.933949 -3.703866,2.227784 0.07461,0.324059 0.190543,0.63417 0.278706,0.954767 0.702388,-0.301819 2.154924,-1.003603 4.006871,-2.377603 0.01772,-0.01315 0.0405,-0.02524 0.05831,-0.0385 0.853184,1.261795 4.156366,5.791612 10.141403,9.247074 0.235654,0.136055 0.483349,0.251176 0.719271,0.379187 0.228822,0.140309 0.452366,0.297258 0.68802,0.433313 5.985037,3.455463 11.559564,4.051194 13.078903,4.159176 -0.0026,0.02206 -0.0017,0.04781 -0.0042,0.06975 -0.263946,2.290833 -0.145441,3.899658 -0.05563,4.658853 0.321727,-0.08395 0.648259,-0.138598 0.966206,-0.236017 -0.08206,-0.729805 -0.168663,-2.186037 0.07738,-4.321534 0.261267,-2.267587 0.911036,-5.224514 2.395193,-8.648595 0.91274,1.525814 3.187392,4.874918 6.873996,7.468889 0.242202,-0.23116 0.494653,-0.455642 0.727945,-0.698337 -4.426977,-3.042533 -6.768581,-7.249482 -7.089381,-7.845833 0.434144,-0.918959 0.894818,-1.862369 1.458434,-2.83858 0.02163,-0.03746 0.04084,-0.071 0.0625,-0.108254 0.02143,-0.03738 0.04087,-0.0708 0.0625,-0.108253 0.563616,-0.976211 1.150296,-1.846872 1.729066,-2.682331 0.654321,-0.01968 5.167897,-0.0791 9.848055,2.005169 0.06885,-0.333797 0.159755,-0.660213 0.213742,-0.995212 -3.906361,-1.684809 -7.685062,-1.965116 -9.386857,-1.991487 2.223263,-2.997358 4.459152,-5.038538 6.292307,-6.398596 1.009048,-0.748634 1.841484,-1.261016 2.534535,-1.639943 -0.08844,-0.320474 -0.176835,-0.638228 -0.278706,-0.954767 -0.762317,0.405511 -1.70939,0.952765 -2.837539,1.789763 -0.01772,0.01315 -0.0405,0.02524 -0.05831,0.0385 -0.853184,-1.261796 -4.156366,-5.791612 -10.141403,-9.247075 -0.235654,-0.136055 -0.483348,-0.251175 -0.71927,-0.379186 -0.228806,-0.140338 -0.452367,-0.297259 -0.688021,-0.433314 -5.985037,-3.455462 -11.559564,-4.051194 -13.078903,-4.159175 0.0026,-0.02205 0.0017,-0.04783 0.0042,-0.06975 0.160786,-1.395505 0.161185,-2.489322 0.13121,-3.352263 z m 12.443506,8.447215 c 0.237748,0.137264 0.457373,0.291541 0.688021,0.433313 0.2381,0.128865 0.481522,0.241923 0.71927,0.379187 1.161546,0.670619 2.211772,1.389437 3.176722,2.122756 -0.262642,1.079695 -1.524616,5.559112 -6.310337,13.929824 -4.856389,8.329913 -8.104691,11.662522 -8.908413,12.429824 -1.117549,-0.46901 -2.265176,-1.019124 -3.426722,-1.689743 -0.237748,-0.137264 -0.457345,-0.291588 -0.68802,-0.433313 -0.2381,-0.128865 -0.481523,-0.241923 -0.719271,-0.379187 -1.161546,-0.670619 -2.211772,-1.389437 -3.176722,-2.122757 0.262643,-1.079694 1.524616,-5.559111 6.310337,-13.929824 4.856393,-8.329909 8.104692,-11.662521 8.908413,-12.429824 1.117548,0.469012 2.265176,1.019125 3.426722,1.689744 z m -4.424999,-2.085677 c -1.345816,1.400977 -4.560462,5.099021 -8.776161,12.325757 -4.150688,7.264272 -5.745965,11.897259 -6.286339,13.763258 -3.438891,-2.799864 -5.287022,-5.40712 -5.829145,-6.216125 2.45916,-1.97599 5.432919,-5.035091 8.128806,-9.704504 0.02152,-0.03727 0.04118,-0.07106 0.0625,-0.108254 0.02155,-0.03706 0.04099,-0.07099 0.0625,-0.108253 2.695887,-4.669413 3.858267,-8.774315 4.339944,-11.892004 0.971681,0.06499 4.153696,0.36189 8.297895,1.940125 z m 9.851039,5.6875 c 3.438891,2.799864 5.287023,5.40712 5.829145,6.216125 -2.45916,1.975989 -5.432919,5.035091 -8.128806,9.704504 -0.02151,0.03726 -0.04118,0.07106 -0.0625,0.108253 -0.02155,0.03706 -0.04098,0.07099 -0.0625,0.108254 -2.695887,4.669413 -3.858267,8.774314 -4.339944,11.892004 -0.97168,-0.06499 -4.153696,-0.36189 -8.297895,-1.940125 1.345816,-1.400977 4.560458,-5.099024 8.776162,-12.325758 4.150687,-7.264271 5.745964,-11.897258 6.286338,-13.763257 z"
       id="path3787"
       inkscape:connector-curvature="0" />
    <g
       style="font-size:15.28827095px;font-style:normal;font-variant:normal;font-weight:900;font-stretch:normal;text-align:center;line-height:125%;letter-spacing:-0.66000003px;word-spacing:0px;text-anchor:middle;fill:#ffffff;fill-opacity:1;stroke:none;font-family:Kozuka Mincho Pro H;-inkscape-font-specification:Kozuka Mincho Pro H Heavy"
       id="text3999">
      <path
         d="m 19.361056,93.509256 c -0.272785,0.43641 -0.547639,0.858037 -0.824562,1.264882 -0.276898,0.406842 -0.548151,0.790418 -0.81376,1.150731 0.193311,0.413781 0.424725,0.804106 0.694241,1.170977 0.269541,0.366863 0.574229,0.705 0.914064,1.014413 1.259031,1.127867 2.547708,1.599565 3.866034,1.415095 1.318343,-0.184481 2.611957,-0.973841 3.880847,-2.368083 0.672072,-0.718874 1.220831,-1.502024 1.64628,-2.349452 0.425454,-0.847431 0.582669,-1.721781 0.471645,-2.623053 -0.111019,-0.90127 -0.635204,-1.792103 -1.572557,-2.672502 -0.490195,-0.488714 -1.146677,-0.818683 -1.969449,-0.989906 -0.82276,-0.171213 -1.789068,0.09527 -2.898928,0.799449 l 0.534728,0.775427 c 0.576242,-0.366293 1.153561,-0.581801 1.73196,-0.646526 0.578412,-0.06472 1.10661,0.109017 1.584594,0.521202 0.477803,0.374999 0.679082,1.022891 0.603839,1.943678 -0.07524,0.920789 -0.78256,2.147624 -2.121976,3.680508 -0.37223,0.426958 -0.858105,0.883376 -1.457625,1.369254 -0.599504,0.485871 -1.238946,0.814915 -1.918326,0.987133 -0.679361,0.172209 -1.324952,0.0013 -1.936774,-0.512713 -0.506877,-0.484096 -0.681338,-1.004295 -0.523384,-1.5606 0.157979,-0.55631 0.465835,-1.175214 0.92357,-1.856714 z"
         style="text-align:start;text-anchor:start;fill:#ffffff"
         id="path2999" />
      <path
         d="m 17.26156,81.786222 0.570709,0.775853 c 0.779093,-0.349688 1.315885,-0.517593 1.610377,-0.503715 0.294502,0.01389 0.553599,0.197339 0.77729,0.550351 l 1.114241,1.514759 c 0.0983,0.115901 0.133977,0.225674 0.10702,0.32932 -0.02695,0.103652 -0.162801,0.244703 -0.407552,0.423153 l -3.164985,2.328129 -0.770004,-1.046785 c -0.215162,-0.248974 -0.278812,-0.474182 -0.19095,-0.675624 0.08788,-0.201439 0.422516,-0.510858 1.003917,-0.928258 l -0.543532,-0.738907 -3.263506,2.4006 0.543532,0.738907 c 0.521952,-0.393423 0.898481,-0.603969 1.129588,-0.631636 0.231125,-0.02767 0.436369,0.09655 0.615733,0.372648 l 0.760945,1.03447 -2.832477,2.083539 c -0.223425,0.174635 -0.392946,0.264538 -0.508562,0.269711 -0.115595,0.0052 -0.240592,-0.08951 -0.374994,-0.284032 l -0.833416,-1.13299 c -0.266739,-0.312649 -0.369903,-0.604475 -0.309492,-0.87548 0.06044,-0.271005 0.363063,-0.714243 0.907886,-1.329714 l -0.570709,-0.775852 -1.865261,1.979385 4.438845,6.034408 0.603441,-0.443885 c -0.329516,-0.419493 -0.472278,-0.741499 -0.428286,-0.966021 0.04401,-0.224531 0.295217,-0.49472 0.753618,-0.810566 l 5.948201,-4.375434 c 0.432642,-0.339596 0.763839,-0.497816 0.99359,-0.474661 0.229754,0.02316 0.49618,0.254197 0.799279,0.693123 l 0.591125,-0.434826 -4.665317,-6.342285 z"
         style="text-align:start;text-anchor:start;fill:#ffffff"
         id="path3001" />
      <path
         d="m 16.910869,81.305157 c 0.301911,-0.249729 0.632088,-0.504667 0.990531,-0.764815 0.358448,-0.260148 0.757094,-0.522796 1.195941,-0.787945 -0.04605,-0.416227 -0.133271,-0.856035 -0.261655,-1.319424 -0.128382,-0.463385 -0.29918,-0.917889 -0.512396,-1.363513 -0.576353,-1.142069 -1.295908,-1.896152 -2.158666,-2.26225 -0.862752,-0.366087 -1.731977,-0.342519 -2.607678,0.0707 -0.770743,0.369788 -1.288982,0.883679 -1.554719,1.541675 -0.265721,0.658005 -0.482996,1.582406 -0.651825,2.773208 -0.125111,0.820259 -0.275212,1.446624 -0.450304,1.879097 -0.175074,0.432471 -0.464921,0.744312 -0.869542,0.935521 C 9.65715,82.187037 9.293247,82.217633 8.9388463,82.099203 8.5844672,81.980771 8.2927925,81.696013 8.0638215,81.244931 7.7955775,80.722284 7.750393,80.269885 7.9282679,79.887731 8.1061662,79.505579 8.5359943,79.069239 9.2177534,78.578711 L 8.6666803,77.792499 c -0.4144076,0.294367 -0.8028237,0.559134 -1.1652496,0.794303 -0.3624015,0.235173 -0.6747389,0.429076 -0.937013,0.581709 0.018773,0.34168 0.084507,0.721112 0.197202,1.138297 0.1127208,0.417184 0.2786044,0.854249 0.4976511,1.311196 0.6544563,1.244734 1.3831129,1.976706 2.185972,2.195918 0.8028792,0.219206 1.4948692,0.174669 2.0759722,-0.13361 0.745294,-0.360979 1.245573,-0.850589 1.500838,-1.468829 0.255278,-0.618245 0.457301,-1.460212 0.606069,-2.525906 0.148213,-0.949318 0.322806,-1.644899 0.523781,-2.086744 0.200985,-0.441839 0.533457,-0.767973 0.997414,-0.978403 0.524274,-0.237891 0.994789,-0.273453 1.411547,-0.106685 0.416765,0.166775 0.729387,0.462614 0.937867,0.887518 0.259539,0.490064 0.312261,0.978453 0.158166,1.465167 -0.154092,0.486718 -0.611609,1.044086 -1.372554,1.672105 z"
         style="text-align:start;text-anchor:start;fill:#ffffff"
         id="path3003" />
      <path
         d="M 4.4386103,67.933853 C 4.043999,67.760344 3.7758785,67.580214 3.634248,67.393462 3.4926426,67.206723 3.3929967,66.97575 3.3353098,66.700543 l -0.7258941,0.185073 0.8347177,3.273931 0.725894,-0.185073 c -0.056479,-0.220278 -0.074243,-0.385353 -0.053292,-0.495226 0.020975,-0.109864 0.079684,-0.176108 0.1761274,-0.198732 0.096467,-0.02262 0.2306323,-0.0095 0.4024953,0.03937 0.1718859,0.04887 0.380489,0.121906 0.6258098,0.219096 l 3.9825376,1.635177 0.011331,0.04444 -3.2443019,0.827164 C 5.5344156,72.196974 5.1671934,72.234066 4.9690665,72.157044 4.7709621,72.080026 4.626739,71.831493 4.5363967,71.411447 l -0.725894,0.185074 1.1444319,4.488691 0.725894,-0.185073 C 5.5294544,75.374702 5.5169812,75.018952 5.643409,74.83289 5.769858,74.646825 6.1050245,74.494319 6.6489095,74.37537 l 7.1552415,-1.824293 c 0.527973,-0.154331 0.893392,-0.180445 1.096259,-0.07834 0.202869,0.102105 0.364101,0.419927 0.483696,0.953467 l 0.71108,-0.181296 -1.155763,-4.533134 -0.71108,0.181296 c 0.12559,0.426837 0.120801,0.725194 -0.01437,0.895072 -0.135164,0.169886 -0.474373,0.31685 -1.017629,0.44089 l -2.414709,0.615652 -1.2148041,-0.494909 4.7418301,-4.111967 -0.759178,-2.977646 -0.71108,0.181296 c 0.09197,0.289805 0.08528,0.544602 -0.02008,0.764393 -0.105343,0.21981 -0.385226,0.532427 -0.839648,0.937852 l -4.5268774,4.088717 z"
         style="text-align:start;text-anchor:start;fill:#ffffff"
         id="path3005" />
      <path
         d="m 13.720485,58.075183 c -0.0068,-0.764694 -0.122308,-1.446708 -0.346636,-2.046044 -0.224329,-0.599321 -0.578433,-1.11377 -1.062315,-1.543351 -0.459857,-0.419691 -1.069478,-0.748511 -1.828866,-0.986461 -0.7593813,-0.23793 -1.6948445,-0.352146 -2.8063921,-0.342648 -0.7764838,-0.0094 -1.6209254,0.107846 -2.5333274,0.351692 -0.9123852,0.243866 -1.6975031,0.730645 -2.3553562,1.460336 -0.6578315,0.72971 -0.9931703,1.818629 -1.0060174,3.266762 0.040887,1.336338 0.3672361,2.361635 0.9790483,3.075892 0.6118338,0.714261 1.372653,1.201426 2.2824599,1.461494 0.9098239,0.26007 1.8321575,0.376986 2.7670036,0.35075 1.1114021,-0.02034 2.0434618,-0.159624 2.7961813,-0.417865 0.752726,-0.25824 1.353301,-0.603307 1.801725,-1.035204 0.531421,-0.513595 0.88816,-1.084094 1.070218,-1.711498 0.182058,-0.627396 0.262816,-1.255347 0.242274,-1.883855 z M 2.5764831,58.224797 c 0.00964,-0.723824 0.2711329,-1.267562 0.784477,-1.631214 0.5133645,-0.363639 1.1616946,-0.606781 1.944992,-0.729427 0.783314,-0.122631 1.5847089,-0.184355 2.4041869,-0.185172 0.7662816,-0.02028 1.5441508,0.02156 2.33361,0.125528 0.789466,0.103986 1.456578,0.331922 2.001339,0.683808 0.544764,0.351901 0.833233,0.889576 0.865407,1.613027 -0.01244,0.704431 -0.284261,1.237925 -0.815469,1.600485 -0.531205,0.362568 -1.189698,0.607923 -1.975481,0.736066 C 9.3337683,60.566047 8.5527989,60.630706 7.776634,60.631873 6.9526129,60.652849 6.1475699,60.61156 5.3615025,60.508006 4.5754515,60.404458 3.921945,60.177661 3.4009809,59.827614 2.8800371,59.477575 2.6052048,58.943303 2.5764831,58.224797 z"
         style="text-align:start;text-anchor:start;fill:#ffffff"
         id="path3007" />
      <path
         d="m 10.759638,52.094856 c 0.39138,-0.01834 0.808488,-0.02388 1.251327,-0.0166 0.442841,0.0073 0.919325,0.03671 1.429454,0.08828 0.213163,-0.360455 0.407575,-0.764487 0.583235,-1.212097 0.17566,-0.447606 0.312072,-0.913587 0.409235,-1.397943 0.2251,-1.2593 0.102679,-2.29439 -0.367264,-3.105275 -0.469944,-0.810872 -1.179089,-1.314082 -2.127438,-1.509633 -0.838342,-0.167242 -1.561343,-0.06761 -2.1690037,0.298889 -0.6076534,0.366518 -1.3365687,0.97513 -2.186748,1.825839 C 6.9897569,47.647011 6.4935501,48.057672 6.0938135,48.298297 5.6940917,48.538932 5.2750537,48.614183 4.8366982,48.524051 4.4302599,48.443401 4.1209246,48.249305 3.9086912,47.941763 3.6964771,47.634231 3.6342925,47.231374 3.7221373,46.73319 3.8215623,46.154201 4.0571448,45.765346 4.4288854,45.566626 4.8006441,45.36792 5.4063782,45.277198 6.2460894,45.294458 l 0.031586,-0.959591 c -0.5081362,-0.01353 -0.9777137,-0.03512 -1.4087338,-0.06476 -0.4310029,-0.02962 -0.7971902,-0.06218 -1.0985631,-0.09766 -0.190202,0.284466 -0.36553,0.627321 -0.5259845,1.028566 -0.1604339,0.401261 -0.2903014,0.850346 -0.3896029,1.347258 -0.2243122,1.388294 -0.081334,2.411172 0.4289353,3.068639 0.5102897,0.657473 1.0903202,1.037471 1.7400933,1.139995 0.8127043,0.158999 1.5067611,0.068 2.0821723,-0.273007 0.575424,-0.340999 1.2426351,-0.892861 2.0016353,-1.655589 0.6886617,-0.670013 1.246022,-1.121305 1.672082,-1.353878 0.426066,-0.232562 0.88777,-0.293642 1.385112,-0.18324 0.562059,0.124671 0.959619,0.378828 1.192679,0.762471 0.233061,0.383653 0.305338,0.807952 0.216831,1.272897 -0.08682,0.54771 -0.337986,0.969866 -0.753513,1.266471 -0.415525,0.296609 -1.116087,0.46747 -2.101688,0.512582 z"
         style="text-align:start;text-anchor:start;fill:#ffffff"
         id="path3009" />
      <path
         d="m 14.995594,37.160624 c 0.791169,0.510735 1.269266,0.901151 1.434292,1.17125 0.165022,0.270113 0.149593,0.609802 -0.04629,1.019067 l -0.655877,1.664118 c -0.05626,0.172283 -0.137349,0.277263 -0.243264,0.314939 -0.105915,0.03768 -0.302712,-0.0015 -0.59039,-0.117662 L 7.6402182,38.353384 C 7.0879493,38.159002 6.7594076,37.962415 6.6545919,37.76362 6.5497927,37.564841 6.6114723,37.201615 6.839631,36.67394 l -0.6969384,-0.274683 -1.8050639,4.579881 0.6969384,0.274683 c 0.1798068,-0.50222 0.3764604,-0.794447 0.5899613,-0.876682 0.2135194,-0.08222 0.5759542,-0.01333 1.0873055,0.206698 l 6.8555981,2.70199 c 0.524566,0.188262 0.838919,0.386105 0.943061,0.593529 0.104142,0.207427 0.05091,0.556179 -0.159709,1.046257 l 0.682716,0.269078 2.903798,-7.367635 -2.582934,-1.576719 z"
         style="text-align:start;text-anchor:start;fill:#ffffff"
         id="path3011" />
      <path
         d="m 21.14639,33.102927 c 0.429534,-0.632696 0.722567,-1.259294 0.8791,-1.879797 0.156524,-0.620491 0.158037,-1.245028 0.0045,-1.873613 -0.139369,-0.606783 -0.4536,-1.22405 -0.942696,-1.851805 -0.489102,-0.627734 -1.193395,-1.253918 -2.112882,-1.878556 -0.633204,-0.44952 -1.394334,-0.833585 -2.283392,-1.152195 -0.889057,-0.318585 -1.811667,-0.364997 -2.767833,-0.139239 -0.956159,0.225786 -1.851497,0.93046 -2.68602,2.114025 -0.726725,1.122205 -1.041723,2.151045 -0.944996,3.086524 0.09674,0.935495 0.445218,1.769006 1.045426,2.500535 0.600221,0.73154 1.292181,1.352475 2.075881,1.862807 0.925534,0.615642 1.771268,1.03142 2.537202,1.247337 0.765939,0.215921 1.456158,0.273869 2.070661,0.173841 0.729241,-0.119988 1.347207,-0.386161 1.853903,-0.798521 0.506691,-0.412353 0.930393,-0.882801 1.271108,-1.411343 z m -9.249418,-6.21767 c 0.419769,-0.589752 0.944182,-0.888112 1.573243,-0.895081 0.629069,-0.0069 1.300567,0.161993 2.014497,0.506814 0.713934,0.344844 1.408082,0.750062 2.082446,1.215656 0.641695,0.419318 1.257569,0.896319 1.847626,1.431004 0.590053,0.534703 1.008964,1.101719 1.256732,1.701051 0.247764,0.599346 0.179061,1.205637 -0.206109,1.818875 -0.411035,0.572212 -0.938116,0.856271 -1.581245,0.852177 -0.643131,-0.0041 -1.324246,-0.176987 -2.043347,-0.518703 -0.719099,-0.341707 -1.39812,-0.73289 -2.037065,-1.173551 -0.689571,-0.451602 -1.328107,-0.943608 -1.91561,-1.476023 -0.587494,-0.532399 -0.995864,-1.090738 -1.225111,-1.675017 -0.229234,-0.584261 -0.151253,-1.179994 0.233943,-1.787202 z"
         style="text-align:start;text-anchor:start;fill:#ffffff"
         id="path3013" />
      <path
         d="M 26.290147,22.841265 19.935573,19.215593 C 19.679,19.075181 19.492464,18.942575 19.375962,18.817774 19.25975,18.697961 19.220928,18.568629 19.259498,18.429778 c 0.03858,-0.138829 0.163301,-0.305806 0.374168,-0.500931 l -0.511196,-0.547588 -3.117899,2.910688 0.511196,0.547588 c 0.214647,-0.219539 0.420685,-0.326483 0.618114,-0.320832 0.197441,0.0057 0.506514,0.126711 0.927218,0.363131 l 9.130207,5.00826 1.173403,-1.09542 -4.672053,-9.462935 c -0.167123,-0.323696 -0.242778,-0.574629 -0.226965,-0.7528 0.01581,-0.178143 0.124206,-0.355146 0.325175,-0.531009 l -0.511196,-0.547589 -2.022723,1.888296 0.511196,0.547588 c 0.191641,-0.186297 0.357815,-0.30047 0.498523,-0.342519 0.140711,-0.04202 0.279522,0.01052 0.416433,0.157634 0.05673,0.06078 0.114854,0.139845 0.174378,0.237201 0.05953,0.09738 0.124363,0.21724 0.19451,0.359579 l 3.271686,6.461847 z"
         style="text-align:start;text-anchor:start;fill:#ffffff"
         id="path3015" />
      <path
         d="m 36.874643,15.271115 -0.823646,0.499263 c 0.278833,0.807168 0.39821,1.356792 0.358131,1.648874 -0.04009,0.292091 -0.24591,0.5338 -0.61746,0.725126 l -1.60807,0.974751 c -0.124203,0.08758 -0.23672,0.113323 -0.33755,0.07723 -0.100837,-0.03608 -0.229214,-0.18397 -0.385131,-0.443656 l -2.036675,-3.359952 1.111268,-0.673608 c 0.267166,-0.192107 0.497151,-0.235425 0.689958,-0.129953 0.192802,0.105488 0.471153,0.466381 0.835055,1.082681 l 0.784424,-0.475488 -2.100074,-3.464541 -0.784424,0.475488 c 0.345321,0.55495 0.521457,0.948751 0.528409,1.181405 0.0069,0.232671 -0.135071,0.426023 -0.426061,0.580056 l -1.098194,0.665684 -1.822705,-3.006961 c -0.154019,-0.238105 -0.22845,-0.414966 -0.223294,-0.530583 0.0052,-0.115595 0.110605,-0.231654 0.316334,-0.348177 l 1.202784,-0.729082 c 0.335185,-0.2378016 0.635047,-0.3145363 0.899586,-0.2302043 0.264538,0.084357 0.679029,0.4252983 1.243474,1.0228253 l 0.823645,-0.499263 -1.8052,-2.0343107 -6.406133,3.8831547 0.388316,0.640613 c 0.447201,-0.290803 0.780653,-0.404287 1.000359,-0.340452 0.219713,0.06385 0.466429,0.338149 0.740147,0.822885 l 3.827681,6.314616 c 0.29967,0.461197 0.427731,0.80518 0.384184,1.031952 -0.04355,0.226775 -0.297423,0.471541 -0.761624,0.734299 l 0.380391,0.627539 6.732976,-4.081275 z"
         style="text-align:start;text-anchor:start;fill:#ffffff"
         id="path3017" />
      <path
         d="m 34.640786,6.6582979 0.243391,0.7084738 c 0.476652,-0.1839453 0.809262,-0.2254683 0.997832,-0.1245693 0.188573,0.1009199 0.366148,0.4197944 0.532725,0.9566245 l 2.409073,7.0124451 c 0.194273,0.514529 0.251171,0.876209 0.170694,1.085039 -0.08048,0.208832 -0.361272,0.387468 -0.842375,0.535909 l 0.238423,0.694015 3.166445,-1.087808 -0.238424,-0.694016 c -0.47076,0.178566 -0.80205,0.210206 -0.993874,0.09492 -0.191828,-0.115282 -0.369214,-0.435568 -0.532159,-0.96086 l -2.334566,-6.7955652 0.02892,-0.00993 7.883992,7.2330375 1.532617,-0.526519 -3.119377,-9.0800315 C 43.590981,5.1774801 43.53768,4.8125447 43.624216,4.6046522 43.710741,4.3967859 43.978297,4.2247172 44.426885,4.0884458 L 44.183494,3.379972 41.01705,4.4677801 41.260441,5.1762539 c 0.47225,-0.1800751 0.810149,-0.216006 1.013699,-0.1077929 0.203541,0.1082383 0.388778,0.4278483 0.55571,0.958831 l 2.08124,6.058174 -0.02892,0.0099 -7.046026,-6.5348445 z"
         style="text-align:start;text-anchor:start;fill:#ffffff"
         id="path3019" />
      <path
         d="m 47.823641,11.462912 c 0.141212,0.365478 0.278409,0.759415 0.411593,1.181814 0.133183,0.422403 0.256,0.883726 0.368454,1.383971 0.409376,0.08819 0.85416,0.144804 1.334352,0.169846 0.480188,0.02504 0.965391,0.007 1.45561,-0.05401 1.265837,-0.184829 2.209044,-0.628406 2.829624,-1.330732 0.620566,-0.702323 0.873602,-1.534237 0.759107,-2.495744 C 54.875832,9.4698619 54.552603,8.8155078 54.012694,8.354993 53.472773,7.8944903 52.664829,7.395538 51.588861,6.8581346 50.850495,6.4795922 50.303953,6.1387774 49.949231,5.8356889 49.594506,5.5326176 49.39056,5.1589043 49.337393,4.7145479 49.285327,4.3034693 49.3716,3.9486191 49.59621,3.6499964 c 0.224607,-0.2986013 0.587104,-0.485033 1.087492,-0.5592958 0.580708,-0.08884 1.024117,0.011634 1.33023,0.3014198 0.306104,0.2898082 0.583786,0.8357356 0.833048,1.6377838 L 53.767283,4.7563089 C 53.619374,4.2699877 53.491305,3.8176966 53.383075,3.3994344 53.274834,2.9811941 53.189875,2.6235141 53.128199,2.3263935 52.798173,2.2359478 52.417461,2.1780832 51.986064,2.1527995 c -0.431407,-0.025259 -0.898512,-0.00639 -1.401317,0.056599 -1.387958,0.2263831 -2.313077,0.6855983 -2.77536,1.377647 -0.462282,0.6920702 -0.639278,1.3625227 -0.530986,2.0113594 0.106258,0.8212663 0.412146,1.4508922 0.917665,1.8888793 0.505518,0.438001 1.240106,0.8963703 2.203768,1.3751094 0.853457,0.4413423 1.45789,0.8273167 1.8133,1.1579243 0.355402,0.330616 0.559401,0.749287 0.611999,1.256013 0.05953,0.572634 -0.0558,1.030177 -0.34602,1.372631 -0.290224,0.342457 -0.669869,0.545246 -1.138935,0.608367 -0.547046,0.09091 -1.026978,-0.01382 -1.439799,-0.314179 -0.412826,-0.300356 -0.796529,-0.910891 -1.151112,-1.831605 z"
         style="text-align:start;text-anchor:start;fill:#ffffff"
         id="path3021" />
      <path
         d="m 64.453998,3.863349 c 0.289475,-0.3194177 0.545199,-0.5167508 0.767174,-0.5919997 0.221956,-0.075229 0.472592,-0.096657 0.75191,-0.064283 l 0.05417,-0.7471548 -3.369821,-0.2442982 -0.05416,0.7471548 c 0.22683,0.016136 0.389042,0.051527 0.486637,0.1061724 0.09758,0.054666 0.141838,0.1313222 0.132778,0.2299684 -0.0091,0.098666 -0.06399,0.2217818 -0.16473,0.3693465 -0.100759,0.1475839 -0.236055,0.3223524 -0.405887,0.5243061 l -2.811499,3.2603501 -0.04574,-0.00332 0.242088,-3.3393246 C 60.063201,3.553666 60.144232,3.19358 60.279997,3.0300119 60.415752,2.8664643 60.697153,2.8083078 61.1242,2.8555425 l 0.05417,-0.7471548 -4.620162,-0.3349427 -0.05417,0.7471548 c 0.546336,0.022693 0.887748,0.1234465 1.024236,0.3022599 0.136484,0.1788342 0.17508,0.5450379 0.11579,1.0986121 l -0.533919,7.3648122 c -0.02069,0.549677 -0.111564,0.904579 -0.272621,1.064705 -0.16106,0.160129 -0.513572,0.212491 -1.057538,0.157088 l -0.05306,0.731907 4.665906,0.338259 0.05306,-0.731907 c -0.444644,-0.01595 -0.72615,-0.114912 -0.84452,-0.296895 -0.118378,-0.181981 -0.150437,-0.550266 -0.09618,-1.104854 l 0.180183,-2.4854337 0.853926,-0.9957394 2.399952,5.7994351 3.06486,0.222189 0.05306,-0.731906 c -0.304014,-0.0045 -0.543598,-0.09146 -0.718751,-0.260954 -0.175173,-0.169493 -0.383147,-0.533925 -0.623922,-1.093297 L 62.26858,6.3107085 z"
         style="text-align:start;text-anchor:start;fill:#ffffff"
         id="path3023" />
      <path
         d="m 69.880838,13.111112 c -0.138997,0.532326 -0.31159,0.856676 -0.51778,0.973049 -0.206198,0.116373 -0.599956,0.0778 -1.181274,-0.115715 l -0.213604,0.702051 4.91436,1.495229 0.213604,-0.702052 c -0.577192,-0.158968 -0.919613,-0.344384 -1.027263,-0.556247 -0.107664,-0.211866 -0.07158,-0.57775 0.10825,-1.097652 l 0.867766,-2.852084 3.699346,-3.860221 c 0.287864,-0.3312149 0.522336,-0.5328676 0.703414,-0.6049589 0.181055,-0.072076 0.399328,-0.062927 0.65482,0.027449 L 78.320532,5.8032824 75.673213,4.9978171 75.455159,5.7144946 c 0.218903,0.063951 0.372638,0.1320325 0.461203,0.2042445 0.08854,0.072228 0.114783,0.1654382 0.07872,0.2796305 -0.02238,0.072436 -0.07301,0.1622344 -0.151878,0.2693958 -0.07889,0.1071763 -0.185316,0.2359283 -0.319269,0.3862564 l -2.551633,2.819157 -0.04388,-0.01335 -0.68518,-3.7879997 c -0.07836,-0.3727283 -0.09343,-0.638321 -0.04521,-0.796779 0.03565,-0.1226433 0.122972,-0.1886252 0.261975,-0.1979459 0.138989,-0.0093 0.342692,0.02804 0.611109,0.1120268 L 73.289163,4.2724533 69.032976,2.9774787 68.814922,3.6941562 c 0.262099,0.06644 0.454416,0.1915369 0.576952,0.3752918 0.122528,0.1837746 0.226155,0.5215877 0.31088,1.0134401 l 1.03695,5.2053919 z"
         style="text-align:start;text-anchor:start;fill:#ffffff"
         id="path3025" />
      <path
         d="m 90.134678,17.183142 c -0.383966,0.520643 -0.687085,0.825866 -0.909359,0.915668 -0.222292,0.08981 -0.459785,0.02823 -0.712479,-0.184723 l -0.964917,-0.726372 2.142336,-2.845892 c 0.185887,-0.260709 0.335854,-0.413323 0.449902,-0.457844 0.11403,-0.04451 0.262868,0.0077 0.446516,0.156733 l 1.160343,0.873485 c 0.337148,0.218332 0.510098,0.467326 0.518849,0.746982 0.0087,0.279664 -0.154374,0.79713 -0.489304,1.552401 l 0.757276,0.570063 1.224374,-2.465322 -5.984924,-4.505342 -0.450534,0.598492 c 0.436112,0.307183 0.66534,0.574622 0.687684,0.802319 0.02233,0.227713 -0.140695,0.558665 -0.489073,0.992857 l -4.44098,5.899425 c -0.315356,0.450694 -0.584105,0.699666 -0.806247,0.746919 -0.222145,0.04725 -0.546755,-0.09983 -0.973831,-0.441264 l -0.44134,0.586278 4.042877,3.043405 0.44134,-0.586278 c -0.522453,-0.370968 -0.798124,-0.670977 -0.827015,-0.900029 -0.0289,-0.229056 0.135784,-0.561152 0.494048,-0.996288 l 2.004418,-2.66268 0.97713,0.735566 c 0.277663,0.178729 0.404701,0.382795 0.381114,0.612201 -0.0236,0.229407 -0.251589,0.625473 -0.683962,1.188198 l 0.732848,0.551675 2.445757,-3.248959 z"
         style="letter-spacing:-0.66000003px;fill:#ffffff"
         id="path3027" />
      <path
         d="m 90.610447,28.841601 c 0.498031,0.580317 1.025947,1.027306 1.58375,1.340966 0.557792,0.31365 1.160109,0.478764 1.806952,0.495344 0.622101,0.0245 1.300141,-0.116997 2.034123,-0.424504 0.733964,-0.307518 1.522821,-0.823115 2.366576,-1.546791 0.599738,-0.493284 1.16983,-1.127176 1.710282,-1.901679 0.54042,-0.774508 0.82697,-1.652717 0.85966,-2.634629 0.0327,-0.981912 -0.41278,-2.030619 -1.336308,-3.146123 -0.892559,-0.995396 -1.802905,-1.568986 -2.731042,-1.720773 -0.928156,-0.151777 -1.823856,-0.03389 -2.687102,0.35365 -0.863261,0.387554 -1.64382,0.892623 -2.341682,1.51521 -0.836658,0.731869 -1.459525,1.439098 -1.868603,2.121689 -0.409085,0.682594 -0.645873,1.33351 -0.710367,1.952752 -0.0753,0.735199 0.01964,1.401321 0.284819,1.998366 0.26517,0.597039 0.60815,1.129213 1.028942,1.596522 z m 8.424136,-7.296923 c 0.459148,0.559641 0.609664,1.143912 0.451549,1.752817 -0.15814,0.608907 -0.497135,1.212672 -1.016987,1.811297 -0.519874,0.598624 -1.092828,1.162332 -1.718864,1.691127 -0.572816,0.509392 -1.194534,0.978752 -1.865155,1.40808 -0.670637,0.42932 -1.327612,0.685011 -1.970927,0.767072 -0.643327,0.08205 -1.210428,-0.143124 -1.701307,-0.675529 -0.44451,-0.546615 -0.580525,-1.129713 -0.408047,-1.749296 0.172471,-0.619588 0.51781,-1.231595 1.03602,-1.836024 0.5182,-0.60443 1.073646,-1.157217 1.666339,-1.658364 0.616517,-0.547136 1.258654,-1.034433 1.926415,-1.461893 0.667743,-0.427454 1.313581,-0.675245 1.937516,-0.743376 0.623914,-0.06812 1.178396,0.16324 1.663448,0.694089 z"
         style="letter-spacing:-0.66000003px;fill:#ffffff"
         id="path3029" />
      <path
         d="m 106.7469,33.817333 c 0.24262,0.377055 0.30814,0.697959 0.19654,0.962714 -0.11162,0.26475 -0.54123,0.680435 -1.28882,1.247056 l 0.43114,0.809648 2.40492,-1.696321 -4.0599,-7.624181 -2.75702,1.035109 0.43833,0.823141 c 0.88121,-0.30146 1.46303,-0.427248 1.74544,-0.377364 0.2824,0.04989 0.51258,0.280223 0.69055,0.690996 l 0.53893,1.012059 -7.529725,4.009601 c -0.480653,0.281205 -0.834109,0.388593 -1.060368,0.322163 -0.226264,-0.06643 -0.477605,-0.377155 -0.754022,-0.932161 l -0.647718,0.344912 2.435941,4.574509 0.647718,-0.344912 c -0.309367,-0.54505 -0.427789,-0.928714 -0.355266,-1.150995 0.07251,-0.222291 0.359802,-0.453937 0.861865,-0.694938 l 7.529725,-4.009601 z"
         style="text-align:start;text-anchor:start;fill:#ffffff"
         id="path3031" />
      <path
         d="m 100.85058,41.530547 c -0.53006,0.172368 -0.898802,0.210835 -1.106215,0.115399 -0.207416,-0.09544 -0.378867,-0.408025 -0.514355,-0.937762 l -0.705227,0.202874 1.272187,4.422361 c 0.24853,0.865087 0.52442,1.545332 0.82767,2.040736 0.30325,0.49539 0.65154,0.860507 1.04489,1.095351 0.33843,0.214497 0.7136,0.345854 1.12551,0.394073 0.4119,0.0482 0.86707,0.0014 1.36552,-0.14028 0.61954,-0.140121 1.13637,-0.54399 1.55049,-1.211606 0.4141,-0.667631 0.44618,-1.747341 0.0962,-3.239134 l 0.0294,-0.0085 c 0.37638,0.920113 0.86456,1.610211 1.46455,2.070296 0.59997,0.460073 1.32494,0.576974 2.1749,0.350702 0.41106,-0.122899 0.74785,-0.313906 1.01037,-0.573022 0.2625,-0.259128 0.45261,-0.559069 0.57035,-0.899824 0.14695,-0.432692 0.18974,-0.912965 0.12838,-1.44082 -0.0614,-0.527862 -0.21266,-1.198882 -0.45382,-2.013062 l -1.15807,-4.025671 -0.71992,0.2071 c 0.16731,0.520583 0.19062,0.875787 0.0699,1.065614 -0.12072,0.189831 -0.45108,0.352477 -0.99109,0.487939 z m 9.1597,0.928427 c 0.1466,0.608727 0.0533,1.067742 -0.27995,1.377044 -0.33326,0.309296 -0.72103,0.518946 -1.16331,0.628949 -0.96965,0.229553 -1.64361,0.15631 -2.02189,-0.219729 -0.37829,-0.376048 -0.59337,-0.720493 -0.64525,-1.033337 l -0.16483,-0.572997 3.43798,-0.989009 c 0.19486,-0.06335 0.34455,-0.0799 0.44904,-0.04964 0.10448,0.03026 0.18457,0.145088 0.24029,0.344487 z m -4.92451,1.130296 c 0.19647,0.677235 0.16871,1.242005 -0.0833,1.694311 -0.25202,0.452296 -0.74062,0.783752 -1.46582,0.994367 -0.52783,0.17901 -1.06951,0.240714 -1.62506,0.185112 -0.55554,-0.05561 -0.95524,-0.440411 -1.19907,-1.154396 l -0.17329,-0.602382 c -0.0661,-0.206688 -0.0578,-0.36219 0.0249,-0.466503 0.0827,-0.104321 0.26853,-0.195569 0.55758,-0.273744 l 3.76121,-1.081992 z"
         style="text-align:start;text-anchor:start;fill:#ffffff"
         id="path3033" />
      <path
         d="m 103.23154,55.849611 c -0.11243,0.04623 -0.21591,0.08324 -0.31044,0.111031 -0.0945,0.02778 -0.17642,0.04418 -0.24567,0.04919 -0.15102,0.01373 -0.26417,-0.03544 -0.33943,-0.147499 -0.0753,-0.112071 -0.12168,-0.30749 -0.13927,-0.586258 l -0.73215,0.04955 0.27561,4.0726 0.73215,-0.04955 c -0.0285,-0.241655 0.0247,-0.436157 0.15971,-0.583508 0.13496,-0.147369 0.42035,-0.307782 0.85617,-0.481239 l 9.64791,-3.932051 -0.10219,-1.510066 -10.28778,-2.353063 c -0.35012,-0.0791 -0.59082,-0.18284 -0.72209,-0.311224 -0.13127,-0.128385 -0.20069,-0.30501 -0.20824,-0.529875 l -0.73216,0.04955 0.17962,2.654055 0.73215,-0.04955 c -0.0212,-0.256506 -0.007,-0.442622 0.0427,-0.558347 0.0496,-0.11573 0.15651,-0.177871 0.32066,-0.186423 0.17033,-0.01153 0.42764,0.01703 0.77195,0.08567 l 1.55216,0.293357 0.224,3.309941 z m 2.35562,-3.683716 4.70843,0.968494 0.004,0.06101 -4.52675,1.716067 z"
         style="text-align:start;text-anchor:start;fill:#ffffff"
         id="path3035" />
      <path
         d="m 103.6155,67.190087 c -0.89007,-0.30754 -1.44741,-0.572813 -1.67204,-0.795819 -0.22462,-0.223021 -0.29056,-0.556604 -0.19782,-1.000751 l 0.24053,-1.772459 c 0.0136,-0.180726 0.0673,-0.302001 0.16123,-0.363825 0.0939,-0.06183 0.29436,-0.07063 0.60142,-0.02638 l 7.7261,1.048472 c 0.58268,0.05721 0.94859,0.169867 1.09775,0.337966 0.14914,0.168088 0.17577,0.53555 0.0799,1.102388 l 0.74231,0.100735 0.66197,-4.878047 -0.74231,-0.100736 c -0.055,0.530596 -0.17635,0.86126 -0.36411,0.991991 -0.18778,0.130726 -0.5562,0.150158 -1.10524,0.05829 l -7.30192,-0.990909 c -0.55432,-0.05787 -0.90675,-0.175123 -1.05731,-0.351763 -0.15056,-0.176644 -0.18195,-0.528037 -0.0941,-1.054181 l -0.72717,-0.09868 -1.06492,7.847295 2.8842,0.91596 z"
         style="text-align:start;text-anchor:start;fill:#ffffff"
         id="path3037" />
      <path
         d="m 98.607944,72.595582 c -0.26752,0.716405 -0.403863,1.394568 -0.40903,2.03449 -0.0052,0.639907 0.141238,1.247045 0.439201,1.821413 0.279072,0.556532 0.730517,1.081849 1.354338,1.575953 0.623817,0.494082 1.456347,0.935708 2.497587,1.324881 0.72163,0.286817 1.55205,0.479751 2.49127,0.578802 0.93921,0.09903 1.84657,-0.07432 2.7221,-0.520052 0.87551,-0.445753 1.57855,-1.342377 2.10911,-2.689877 0.44036,-1.262361 0.50281,-2.336529 0.18734,-3.222507 -0.31548,-0.88599 -0.8514,-1.613294 -1.60774,-2.181913 -0.75636,-0.568627 -1.57566,-1.008074 -2.45791,-1.318341 -1.04498,-0.379 -1.96511,-0.582715 -2.76039,-0.611144 -0.79528,-0.02843 -1.4796,0.07869 -2.05294,0.321365 -0.6801,0.289237 -1.217474,0.694156 -1.612129,1.21476 -0.394653,0.520596 -0.694921,1.077986 -0.900807,1.67217 z m 10.458566,3.850922 c -0.2682,0.672371 -0.70706,1.086411 -1.31659,1.242122 -0.60953,0.155691 -1.30194,0.150545 -2.07721,-0.01544 -0.77528,-0.166002 -1.54564,-0.395347 -2.31106,-0.688035 -0.72273,-0.255463 -1.43403,-0.573082 -2.13391,-0.952859 -0.69988,-0.379794 -1.241125,-0.831504 -1.623751,-1.355131 -0.382624,-0.523642 -0.459424,-1.12896 -0.230401,-1.815957 0.263867,-0.653262 0.708702,-1.05404 1.334522,-1.202334 0.62581,-0.148302 1.32849,-0.141583 2.10805,0.02016 0.77956,0.161732 1.5319,0.381023 2.25701,0.657873 0.77688,0.275493 1.51376,0.602326 2.21061,0.980501 0.69685,0.378162 1.2258,0.823936 1.58687,1.337324 0.36105,0.513374 0.42633,1.110632 0.19586,1.791776 z"
         style="text-align:start;text-anchor:start;fill:#ffffff"
         id="path3039" />
      <path
         d="m 96.022634,83.777598 7.029626,2.027428 c 0.28242,0.07605 0.49494,0.161004 0.63755,0.254863 0.14116,0.08908 0.20934,0.205634 0.20455,0.349662 -0.005,0.144011 -0.0867,0.335661 -0.2457,0.574951 l 0.62577,0.411821 2.34485,-3.563011 -0.62576,-0.411821 c -0.15692,0.263909 -0.33198,0.416362 -0.52519,0.457357 -0.19322,0.04098 -0.5221,-0.0039 -0.98665,-0.13459 l -10.052768,-2.717568 -0.882473,1.340918 6.768901,8.096738 c 0.23865,0.275243 0.37126,0.501306 0.39784,0.678191 0.0266,0.176857 -0.0371,0.374406 -0.19099,0.592646 l 0.62576,0.411821 1.52122,-2.311487 -0.62577,-0.411821 c -0.14238,0.226185 -0.277,0.376276 -0.40385,0.450275 -0.12686,0.07397 -0.27414,0.05559 -0.44184,-0.05514 -0.0695,-0.04571 -0.14456,-0.108869 -0.22533,-0.189471 -0.0808,-0.08063 -0.17202,-0.181849 -0.27371,-0.303668 L 95.99742,83.81591 z"
         style="text-align:start;text-anchor:start;fill:#ffffff"
         id="path3041" />
      <path
         d="m 90.508524,89.648425 c -0.400842,-0.376851 -0.603001,-0.683646 -0.606477,-0.920384 -0.0035,-0.236745 0.218876,-0.563997 0.667047,-0.981756 l -0.514147,-0.523599 -3.665195,3.599025 0.514147,0.523599 c 0.415862,-0.430674 0.742564,-0.642562 0.980109,-0.635663 0.237552,0.0069 0.541522,0.21371 0.91191,0.620465 l 2.08872,2.127123 1.618438,5.095794 c 0.153009,0.411288 0.217821,0.713678 0.194438,0.907172 -0.02338,0.193466 -0.1359,0.380728 -0.337548,0.561789 l 0.524858,0.53451 1.974406,-1.938765 -0.524858,-0.534508 c -0.160933,0.161583 -0.294297,0.263972 -0.400093,0.307165 -0.1058,0.04317 -0.200197,0.02159 -0.283193,-0.06474 -0.05289,-0.05432 -0.107493,-0.141757 -0.163825,-0.262301 -0.05634,-0.12057 -0.118437,-0.275639 -0.186302,-0.465208 l -1.25378,-3.589779 0.03272,-0.03213 3.653807,1.211654 c 0.364761,0.109619 0.605163,0.223519 0.721207,0.341703 0.09062,0.09 0.106748,0.198259 0.04839,0.324764 -0.05836,0.126484 -0.188658,0.287458 -0.390883,0.482922 l 0.524858,0.534508 3.174321,-3.117013 -0.524858,-0.534508 c -0.183794,0.198317 -0.385686,0.307288 -0.605677,0.326914 -0.220004,0.01961 -0.566204,-0.05111 -1.038602,-0.212163 l -5.066648,-1.581278 z"
         style="text-align:start;text-anchor:start;fill:#ffffff"
         id="path3043" />
    </g>
    <path
       style="fill:none;stroke:none"
       d="m 36.607143,109.64286 c 0,0 6.178434,4.10714 21.25,4.10714 15.071566,0 21.25,-4.10714 21.25,-4.10714"
       id="path4150"
       inkscape:connector-curvature="0"
       sodipodi:nodetypes="czc" />
    <g
       style="font-size:14px;font-style:normal;font-variant:normal;font-weight:900;font-stretch:normal;text-align:center;line-height:125%;letter-spacing:2.52999997000000000px;word-spacing:0px;text-anchor:middle;fill:#ffffff;fill-opacity:1;stroke:none;font-family:Kozuka Mincho Pro H;-inkscape-font-specification:Kozuka Mincho Pro H Heavy"
       id="text4152">
      <path
         d="m 37.370984,107.03092 c -0.04224,0.40786 -0.101764,0.84035 -0.17857,1.29746 -0.07681,0.45711 -0.181793,0.94558 -0.314957,1.46539 0.339652,0.27696 0.727331,0.54134 1.163039,0.79314 0.435703,0.25179 0.896559,0.46584 1.38257,0.64215 1.267907,0.42993 2.358166,0.46517 3.27078,0.10572 0.912601,-0.35945 1.544254,-1.01456 1.894959,-1.96532 0.304204,-0.84135 0.314207,-1.60509 0.03001,-2.29123 -0.284215,-0.68613 -0.799981,-1.53562 -1.547299,-2.54846 -0.508191,-0.70414 -0.85552,-1.28185 -1.041987,-1.73314 -0.186479,-0.45127 -0.198799,-0.89666 -0.03696,-1.33617 0.147035,-0.40797 0.396274,-0.6977 0.747718,-0.86921 0.35143,-0.17149 0.778033,-0.17282 1.27981,-0.004 0.583583,0.19346 0.949116,0.49806 1.0966,0.91383 0.147466,0.41578 0.14659,1.05678 -0.0026,1.92301 l 0.98804,0.18279 c 0.09349,-0.5237 0.189283,-1.00624 0.287381,-1.44762 0.09808,-0.44137 0.189047,-0.8152 0.272908,-1.12151 -0.264611,-0.24132 -0.591969,-0.47638 -0.982077,-0.70519 -0.390126,-0.22878 -0.834523,-0.433422 -1.333191,-0.613911 -1.401514,-0.449289 -2.482352,-0.461344 -3.242517,-0.03617 -0.760176,0.425198 -1.244131,0.965968 -1.451867,1.622318 -0.291664,0.81611 -0.306067,1.54855 -0.04321,2.19733 0.262851,0.64879 0.729545,1.42554 1.400082,2.33027 0.5856,0.81743 0.965408,1.46478 1.139425,1.94205 0.174005,0.47727 0.164985,0.9646 -0.02706,1.46197 -0.216932,0.56212 -0.542123,0.93376 -0.975574,1.11491 -0.433461,0.18116 -0.88383,0.18958 -1.351108,0.0253 -0.553188,-0.17552 -0.950744,-0.50147 -1.192668,-0.97785 -0.24193,-0.47638 -0.309147,-1.22805 -0.201651,-2.255 z"
         style="letter-spacing:2.86999988999999990px;fill:#ffffff"
         id="path3046" />
      <path
         d="m 53.258311,110.88201 -1.691171,-7.46764 c -0.0729,-0.29729 -0.102334,-0.535 -0.08831,-0.71312 0.01038,-0.17438 0.08279,-0.29574 0.217237,-0.36407 0.134437,-0.0683 0.351473,-0.09 0.651109,-0.0651 l 0.06152,-0.78157 -4.450176,-0.3503 -0.06152,0.78157 c 0.321156,0.0106 0.549304,0.0941 0.684446,0.25048 0.135138,0.15643 0.260085,0.48056 0.374842,0.9724 l 2.585095,10.58738 1.674798,0.13184 4.004069,-10.2934 c 0.131802,-0.35774 0.272064,-0.59346 0.420786,-0.70715 0.1487,-0.11367 0.361936,-0.15506 0.639709,-0.12418 l 0.06152,-0.78157 -2.887032,-0.22726 -0.06152,0.78157 c 0.279237,0.0163 0.484798,0.0639 0.616685,0.14284 0.131869,0.0789 0.189389,0.22322 0.172561,0.43287 -0.0068,0.0867 -0.0268,0.18748 -0.0599,0.30223 -0.03312,0.11476 -0.07983,0.24951 -0.140153,0.40424 l -2.676742,7.09172 z"
         style="letter-spacing:0.93999999999999995px;fill:#ffffff"
         id="path3048" />
      <path
         d="m 65.086867,111.6004 c 0.05012,0.11694 0.09045,0.22466 0.120991,0.32314 0.03053,0.0985 0.04896,0.18393 0.05527,0.25632 0.0167,0.15783 -0.033,0.27698 -0.149096,0.35747 -0.116111,0.0805 -0.319886,0.1321 -0.611328,0.15481 l 0.06318,0.76539 4.257466,-0.35142 -0.06318,-0.76539 c -0.252437,0.0335 -0.456795,-0.0192 -0.613077,-0.1581 -0.156301,-0.13894 -0.328579,-0.4351 -0.516835,-0.88848 l -4.263933,-10.03512 -1.578611,0.13031 -2.303159,10.80194 c -0.07735,0.36761 -0.182189,0.62109 -0.314504,0.76044 -0.132317,0.13936 -0.31607,0.21473 -0.55126,0.22611 l 0.06318,0.76539 2.774528,-0.22902 -0.06318,-0.76539 c -0.268091,0.0262 -0.46307,0.0142 -0.584937,-0.036 -0.121873,-0.0501 -0.188553,-0.16103 -0.200042,-0.33267 -0.0147,-0.17805 0.0112,-0.44776 0.0777,-0.80912 l 0.282965,-1.62878 3.460187,-0.28561 z m -3.891234,-2.40802 0.940618,-4.94206 0.06378,-0.005 1.8658,4.71042 z"
         style="letter-spacing:0.93999999999999995px;fill:#ffffff"
         id="path3050" />
      <path
         d="m 70.080639,112.46389 0.497847,0.39347 7.441456,-2.41622 -0.456399,-3.11529 -0.958715,0.31129 c 0.103668,0.96691 0.07479,1.61622 -0.08665,1.94796 -0.161446,0.33174 -0.53249,0.57487 -1.113133,0.72941 l -2.495703,0.81035 1.928077,-11.728616 -0.548441,-0.393873 -6.924055,2.248219 0.417264,2.94296 0.958716,-0.31129 c -0.09368,-0.89619 -0.07998,-1.49081 0.0411,-1.78387 0.121083,-0.29304 0.454413,-0.51201 0.999989,-0.65693 l 2.343526,-0.76094 z"
         style="letter-spacing:0.93999999999999995px;fill:#ffffff"
         id="path3052" />
    </g>
  </g>
</svg>
