<svg xmlns="http://www.w3.org/2000/svg" width="200" height="199"><metadata xmlns:fl="https://football-logos.cc/iceland/iceland-national-team">dl1_03b4b537a584d0e902736f24d011e11d753dd8670c77c6caee426bc29fd9259f</metadata><!-- Source: https://football-logos.cc --><path d="M95 .24c-2.16.1-4.89.3-6.07.45-1.18.16-3.11.45-4.29.64-1.18.2-3 .52-4.04.72-1.05.19-3.2.68-4.77 1.06-1.57.39-3.93 1.04-5.23 1.44-1.31.4-3.78 1.24-5.48 1.87s-4.92 1.99-7.14 3.01c-2.23 1.03-5.34 2.61-6.91 3.51s-4.09 2.43-5.59 3.41c-1.51.98-3.55 2.37-4.53 3.11-.98.73-2.59 1.96-3.57 2.73s-3.27 2.76-5.09 4.41c-1.81 1.65-4.69 4.55-6.39 6.45-1.69 1.89-4.34 5.1-5.88 7.13s-3.42 4.7-4.18 5.94c-.76 1.25-2.08 3.49-2.93 5-.86 1.5-2.19 4.07-2.96 5.7-.78 1.64-1.77 3.83-2.21 4.88-.44 1.04-1.22 3.08-1.74 4.51-.51 1.44-1.16 3.42-1.44 4.4s-.77 2.7-1.08 3.81c-.32 1.11-.8 3.14-1.08 4.51-.28 1.38-.66 3.3-.85 4.28-.18.98-.5 3.23-.7 5-.21 1.76-.49 5.08-.63 7.37-.19 3.01-.19 5.27 0 8.2.15 2.22.43 5.49.63 7.25.2 1.77.69 4.92 1.09 7.01.39 2.1 1.26 5.73 1.92 8.09.66 2.35 1.62 5.45 2.14 6.89.51 1.44 1.43 3.74 2.03 5.12.6 1.37 1.75 3.88 2.56 5.58.8 1.7 2.43 4.7 3.61 6.66 1.19 1.96 2.73 4.37 3.43 5.35s1.82 2.53 2.48 3.44 2.2 2.84 3.43 4.28 3.38 3.8 4.78 5.24c1.4 1.43 3.67 3.64 5.03 4.89 1.37 1.25 3.17 2.8 4.01 3.44.84.65 2.24 1.71 3.1 2.37s2.85 2.04 4.42 3.07 4.25 2.68 5.95 3.66c1.71.98 4.81 2.58 6.91 3.55 2.09.97 5.04 2.23 6.55 2.79 1.5.57 4.5 1.58 6.66 2.25s4.68 1.38 5.6 1.58c.91.19 3.22.68 5.12 1.08 1.9.39 4.36.81 5.47.93 1.12.12 2.94.32 4.05.44 1.11.13 5.08.23 8.81.23s7.7-.1 8.81-.23c1.11-.12 2.93-.32 4.05-.44 1.11-.12 3.63-.54 5.59-.94 1.97-.39 4.22-.86 5-1.05.79-.19 2.07-.53 2.86-.75s2.39-.71 3.57-1.08 3.7-1.23 5.6-1.9 5.38-2.17 7.73-3.33c2.36-1.17 5.95-3.12 7.98-4.34 2.03-1.21 4.49-2.77 5.48-3.46.98-.69 2.12-1.49 2.53-1.78.42-.29 1.43-1.06 2.24-1.71.82-.66 2.25-1.82 3.18-2.59s3.03-2.7 4.67-4.29c1.63-1.6 4.05-4.13 5.37-5.62 1.33-1.49 3.27-3.79 4.32-5.1 1.04-1.3 2.7-3.6 3.68-5.11.98-1.5 2.41-3.75 3.18-4.99s2.23-3.92 3.24-5.94c1.01-2.03 2.34-4.92 2.95-6.42.62-1.51 1.55-3.91 2.06-5.35.52-1.44 1.3-3.85 1.74-5.35.44-1.51 1.13-4.29 1.54-6.18.41-1.9.9-4.2 1.09-5.11.2-.92.35-2.1.35-2.62s.11-1.33.24-1.78c.13-.46.4-3.35.6-6.42.31-4.94.32-6.2.01-10.82-.19-2.88-.46-5.98-.6-6.9-.13-.91-.34-2.36-.47-3.21-.12-.85-.54-3.04-.93-4.87s-1.2-5.09-1.82-7.25c-.61-2.16-1.92-5.96-2.9-8.44-.99-2.49-2.68-6.28-3.76-8.44s-2.58-4.94-3.34-6.18-2.27-3.6-3.35-5.23c-1.09-1.64-2.71-3.89-3.6-5-.9-1.12-2.55-3.1-3.67-4.4-1.13-1.31-2.25-2.53-2.48-2.73-.24-.19-.86-.89-1.37-1.54-.52-.66-1.4-1.57-1.97-2.03-.57-.45-2.25-1.9-3.73-3.21s-3.44-2.97-4.36-3.7-3.22-2.39-5.12-3.71c-1.9-1.31-4.74-3.1-6.31-3.98s-4.41-2.35-6.31-3.28c-1.9-.92-4.74-2.21-6.31-2.84-1.57-.64-4.19-1.6-5.83-2.13s-4.48-1.36-6.31-1.86c-1.83-.49-5.26-1.23-7.62-1.63s-5.09-.84-6.07-.98c-.98-.15-4.14-.36-7.03-.49-2.88-.13-5.29-.22-5.35-.2-.07.02-1.89.11-4.05.2" data-source="https://football-logos.cc" style="fill:#0042e5"></path><path d="M96.31 19.76c-1.39.11-3.42.48-4.88.89-1.38.39-3.33 1.09-4.35 1.56-1.01.47-2.38 1.17-3.03 1.57l-1.19.71v5.7c1.38-1.05 2.48-1.79 3.33-2.31s2.35-1.29 3.33-1.7c.99-.42 2.59-.98 3.58-1.25 1.13-.3 2.9-.53 4.88-.61 1.92-.08 3.72-.03 4.76.15.91.15 2.41.5 3.33.77s2.53.89 3.57 1.39c1.05.5 2.74 1.5 3.75 2.23l1.85 1.33v-5.7c-1.57-.99-2.88-1.68-3.93-2.17s-2.87-1.17-4.05-1.51-2.78-.71-3.57-.83-2.23-.26-3.21-.31c-.99-.05-2.86-.01-4.17.09m-19.17 4.27-2.25 2.25L75 37.8c13.33.12 13.75.15 14.76.64.64.31 2.35 1.78 4.23 3.63l3.15 3.1 3.93-.01c4.98-4.89 6.86-6.52 7.38-6.78.87-.42 1.57-.46 7.8-.52l6.85-.06V26.27l-4.53-4.52-.12 11.42c-10.56.23-11.03.27-12.14.79-.82.37-2.12 1.47-4.17 3.51l-2.97 2.96c-3.51-3.52-5.06-4.96-5.72-5.46-.65-.5-1.56-1.05-2.02-1.23-.57-.22-2.55-.36-6.31-.45l-5.48-.12-.25-11.4zm-2.62 23.7v4.93l2.61 2.62c.1 3.04.08 3.92.01 3.92-.06 0-3.71-3.58-8.09-7.96l-7.98-7.97h-6.43c21.04 21.01 27.23 27.11 27.32 27.11.1 0 .18-3.78.19-8.39v-8.38l-3.12-3.09.14-3.09h5.82l4.65 4.64h6.67c-6.54-6.54-8.74-8.54-9.29-8.8-.86-.43-1.47-.47-6.72-.47h-5.78zm36.67-4.55c-.47.2-2.7 2.23-5.09 4.63l-4.26 4.26 6.61-.01c3.69-3.51 4.98-4.59 5.24-4.65s1.55-.09 2.86-.05l2.38.07.12 3.21-2.88 2.74.02 17.23c21.04-20.91 27.14-27.06 27.14-27.16s-1.41-.18-3.15-.18h-3.15l-16.08 16.05v-4.04l2.63-2.62-.01-9.86c-10.43.01-11.71.08-12.38.38M44.06 57.23l-.01 3.28 9.16 9.15c-4.56 0-5.62.11-6.25.37-.56.24-2.54 2.01-5.41 4.85l-4.53 4.49-8.33.17c-2.77 1.3-4 2.06-4.52 2.53-.53.46-1.36 1.42-1.84 2.12-.49.71-1.13 1.92-1.42 2.71-.49 1.35-.53 1.87-.6 9.45l-.07 8.02 6.55.01 6.04-6.19 21.1.01c3.61 3.59 4.65 4.66 4.65 4.69s-5.07.08-11.26.12l-11.25.06c-1.66.98-3.29 2.51-4.7 4.02l-2.56 2.75h-8.57l4.64 4.5 5.72.03c4.79-4.81 6.48-6.37 6.84-6.56.55-.29 2.38-.35 10.89-.35 5.63 0 10.24.08 10.23.18 0 .1-1.74 1.86-3.87 3.92l-3.86 3.73c-5.44.02-7.02-.03-7.02-.1 0-.06 1.02-1.13 2.26-2.38l2.26-2.25h-6.64l-8.95 9.03h20.47l14.46-14.38-11.6-11.52c-18.86-.01-23.93.08-24.46.22-.64.17-1.7.99-3.69 2.86l-2.8 2.61c-.11-10.15-.1-10.38.44-11.53.31-.65.92-1.54 1.37-1.97.44-.43 1.29-1.02 1.88-1.31.97-.48 1.49-.53 5.59-.59l4.53-.07 9.73-9.73 23.13-.01 5 5.25c4.89-.01 6.31-.09 6.31-.19s-2.12-2.29-4.71-4.87l-4.7-4.7H59.76L44.08 53.95zm102.13 4.71-7.74 7.72-14.05-.02-9.46 9.65 6.37.14 5.12-5.25h23.09l9.65 9.76 12.14.01 4.17 4.26-.02 8.2-2.72 2.72-5.48-5.46-25.27.01-11.51 11.53 14.4 14.38h20.48l-9.05-9.04h-6.43l4.76 4.76h-7.38c-6-5.99-7.74-7.75-7.74-7.79 0-.03 4.74-.05 10.54-.05l10.54.01 6.9 6.87 5.71-.01 4.77-4.48-8.46-.02c-4.77-4.92-5.94-5.94-6.78-6.33l-1.19-.56H139.4l4.77-4.76h21.07l7.5 7.65 7.24-7.53V86.19l-12.72-12.95-6.43-.01 6.19 6.18-5.95-.01c-7.16-7.19-9.17-9.02-9.76-9.29-.73-.34-1.54-.44-3.51-.44-1.41-.01-2.56-.09-2.56-.19 0-.09 2.03-2.21 4.52-4.69l4.53-4.52c0-4.7-.09-6.06-.18-6.06-.1 0-3.67 3.48-7.92 7.73m-56.63-.42-2.41 2.55-.01 25.68 4.53 4.52-.01-28.29 2.41-2.26 10.1-.01 2.25 2.27c.01 21.65.09 27.93.19 27.93.1.01 1.17-.98 2.38-2.19l2.2-2.21V64.19l-5.36-5.25-13.87.02zm7.1 21.75v15.99l2.39 2.38 2.38-2.38V67.28h-4.76zm-47.94-1.6-2.26 2.26H67.5l21.31 21.28-28.09 28.05-.01 7.01h6.26l-12.33 12.37h6.67c9.85-9.89 12.5-12.37 12.77-12.37.41 0 .44.24.44 3.69v3.69l12.62 12.6v3.92l4.53 4.52v-10.46l-12.62-12.61v-5.35h4.28l4.88 5.02 6.67-.02c-6.94-6.92-8.98-8.75-9.64-9.09-1.06-.53-1.22-.54-10.42-.6-5.14-.03-9.34-.11-9.34-.18 0-.06 6.67-6.86 14.82-15.1s14.85-15.06 14.88-15.16c.03-.09-5.7-5.92-12.74-12.94l-12.8-12.78-18.65-.01zm67.06 10.64-12.9 12.9c23.32 23.32 30.04 30.14 29.98 30.2-.07.06-4.3.13-9.41.17-9.1.06-9.31.07-10.47.6-.88.4-2.3 1.65-5.42 4.76-2.33 2.31-4.23 4.26-4.23 4.33 0 .06 1.48.09 3.28.05l3.27-.07 5-4.98h4.17v5.35l-12.62 12.61c-.01 7.73.05 10.03.12 10.1.08.07 1.15-.9 2.38-2.14l2.25-2.26.01-3.8 12.38-12.37c0-7.33.02-7.49.48-7.49.3 0 2.7 2.22 6.66 6.19l6.19 6.18c4.99.09 6.43.06 6.43 0 0-.07-2.76-2.88-6.13-6.24l-6.13-6.13h6.31v-7.01c-21.23-21.19-27.51-27.55-27.65-27.82-.23-.42.86-1.58 10.3-10.99l10.56-10.52h21.2l-4.53-4.52h-18.57zM63.32 93.5c0 .03 2.63 2.68 5.84 5.88l5.85 5.83-30.97 30.9.13 6.31 37.38-37.34-11.67-11.64c-5.07 0-6.55.02-6.56.06m59.24 5.82-5.89 5.89c28.87 28.85 37.34 37.14 37.44 37.04.11-.11.19-1.53.18-3.16v-2.98c-23.99-23.86-30.96-30.87-30.96-30.96-.01-.1 2.57-2.7 5.72-5.77s5.72-5.67 5.72-5.76c0-.1-1.43-.18-3.16-.18h-3.16zM89.1 118.65l-7.21 7.24 7.51 7.48 19.53.01 7.38-7.37c-11.07-11.18-14.37-14.45-14.46-14.47-.1-.02-.18 1.44-.19 3.24v3.26l7.98 7.96-2.85 2.86-15.48.01-2.86-2.87 7.99-7.96-.14-6.64zm7.57 41.6v14.74l-3.69-.01-5.84-5.82v6.42l3.93 3.92 15.95.01 4.17-4.17c0-4.89-.09-6.06-.24-6.06-.13 0-1.49 1.29-3.03 2.86l-2.8 2.85h-3.69v-29.48h-4.76z" data-source="https://football-logos.cc" style="fill:#fff"></path><!-- source: https://football-logos.cc --></svg>